<svg width="144.000000" height="20.000000" viewBox="0 0 144 20" fill="none" xmlns="http://www.w3.org/2000/svg" xmlns:xlink="http://www.w3.org/1999/xlink">
	<desc>
			Created with Pixso.
	</desc>
	<defs>
		<clipPath id="clip1_746">
			<rect id="Frame" width="130.000000" height="16.000000" transform="translate(0.000000 2.000000)" fill="white" fill-opacity="0"/>
		</clipPath>
	</defs>
	<g clip-path="url(#clip1_746)">
		<path id="Vector" d="M1.91 7.05L0.78 7.05C0.39 7.05 0.17 6.9 0.17 6.5C0.17 6.14 0.39 5.96 0.78 5.96L1.91 5.96L1.91 4.94C1.91 3.16 2.8 2.25 4.54 2.25C5.22 2.25 5.82 2.39 6.32 2.65C6.92 3.05 7.21 3.6 7.21 4.25C7.21 4.72 7.06 4.9 6.71 4.9C6.46 4.9 6.25 4.76 6.18 4.5C6.03 4.03 5.89 3.74 5.78 3.63C5.57 3.38 5.15 3.23 4.54 3.23C3.44 3.23 2.98 3.78 2.98 4.83L2.98 5.85L5.04 5.85C5.5 5.85 5.71 6 5.71 6.39C5.71 6.76 5.46 6.94 5.04 6.94L2.98 6.94L2.98 13.67C2.98 14.07 2.84 14.29 2.48 14.29C2.13 14.29 1.98 14.07 1.98 13.67L1.91 7.05ZM11.11 13.2L11.11 7.09L9.59 7.09C9.16 7.09 8.95 6.94 8.95 6.54C8.95 6.18 9.16 6 9.59 6L11.61 6C11.97 6 12.14 6.29 12.14 6.9C12.78 6.21 13.42 5.85 14.17 5.85C14.77 5.85 15.2 6 15.55 6.39C15.91 6.8 16.05 7.27 16.05 7.85C16.05 8.25 15.91 8.47 15.55 8.47C15.34 8.47 15.2 8.32 15.09 8.07C14.95 7.56 14.84 7.3 14.84 7.27C14.7 7.01 14.38 6.87 14.06 6.87C13.67 6.87 13.28 7.01 12.96 7.34C12.75 7.49 12.46 7.81 12.11 8.29L12.11 13.2L14.03 13.2C14.49 13.2 14.66 13.34 14.66 13.7C14.66 14.07 14.45 14.25 14.03 14.25L9.59 14.25C9.12 14.25 8.95 14.1 8.95 13.7C8.95 13.34 9.16 13.16 9.59 13.16L11.15 13.16L11.11 13.2ZM18.82 10.29L18.82 11.45C18.82 12.72 19.67 13.3 21.38 13.3C22.02 13.3 22.51 13.27 22.9 13.09C23.12 13.05 23.44 12.83 23.93 12.47C24.22 12.18 24.47 12.03 24.57 12.03C24.86 12.03 25.04 12.18 25.04 12.47C25.04 12.76 24.82 13.12 24.4 13.49C23.72 14.03 22.66 14.36 21.34 14.36C18.96 14.36 17.79 13.41 17.79 11.41L17.79 8.54C17.79 7.89 18.04 7.27 18.54 6.83C19.18 6.18 20.17 5.89 21.45 5.89C23.76 5.89 24.89 7.09 24.89 9.49C24.89 10.1 24.65 10.36 24.25 10.36L18.82 10.29ZM18.82 9.23L23.9 9.23C23.9 7.67 23.05 6.87 21.34 6.87C20.7 6.87 20.17 7.01 19.6 7.34C19.1 7.74 18.82 8.14 18.82 8.65L18.82 9.23ZM27.74 10.29L27.74 11.45C27.74 12.72 28.59 13.3 30.29 13.3C30.93 13.3 31.43 13.27 31.82 13.09C32.03 13.05 32.35 12.83 32.85 12.47C33.13 12.18 33.38 12.03 33.49 12.03C33.77 12.03 33.95 12.18 33.95 12.47C33.95 12.76 33.74 13.12 33.31 13.49C32.64 14.03 31.57 14.36 30.26 14.36C27.88 14.36 26.71 13.41 26.71 11.41L26.71 8.54C26.71 7.89 26.95 7.27 27.45 6.83C28.09 6.18 29.09 5.89 30.36 5.89C32.67 5.89 33.81 7.09 33.81 9.49C33.81 10.1 33.56 10.36 33.17 10.36L27.74 10.29ZM27.74 9.23L32.81 9.23C32.81 7.67 31.96 6.87 30.26 6.87C29.62 6.87 29.09 7.01 28.52 7.34C27.98 7.74 27.74 8.14 27.74 8.65L27.74 9.23ZM35.69 11.01L35.69 6.47C35.69 4.03 36.93 2.87 39.39 2.87C40.38 2.87 41.16 3.12 41.8 3.52C42.48 4.07 42.83 4.83 42.83 5.81C42.83 6.29 42.69 6.47 42.3 6.47C42.05 6.47 41.84 6.25 41.77 5.81C41.73 5.45 41.55 5.12 41.37 4.8C41.09 4.18 40.38 3.92 39.31 3.92C38.43 3.92 37.75 4.18 37.33 4.61C36.9 5.05 36.79 5.74 36.79 6.69L36.79 10.47C36.79 11.49 37.01 12.18 37.4 12.58C37.86 13.05 38.5 13.34 39.39 13.34C40.77 13.34 41.55 12.83 41.77 11.89C41.87 11.49 41.87 11.34 41.87 11.27C41.98 11.05 42.12 10.98 42.33 10.98C42.69 10.98 42.87 11.23 42.87 11.63C42.87 12.54 42.48 13.23 41.77 13.81C41.16 14.21 40.42 14.43 39.46 14.43C38.32 14.43 37.43 14.18 36.79 13.63C36.05 13.01 35.69 12.1 35.69 11.01ZM44.47 11.67L44.47 8.65C44.47 6.8 45.64 5.89 48.02 5.89C50.4 5.89 51.57 6.8 51.57 8.65L51.57 11.67C51.57 13.52 50.4 14.43 48.05 14.43C45.67 14.39 44.47 13.49 44.47 11.67ZM50.54 11.67L50.54 8.65C50.54 7.49 49.69 6.94 47.98 6.94C46.35 6.94 45.46 7.56 45.46 8.65L45.46 11.67C45.46 12.83 46.31 13.38 48.02 13.38C49.76 13.34 50.54 12.76 50.54 11.67ZM59.38 13.38C58.89 13.78 58.5 14 58.1 14.14C57.71 14.29 57.22 14.39 56.68 14.39C55.76 14.39 54.94 14.18 54.37 13.78C53.7 13.3 53.34 12.61 53.34 11.67L53.34 8.54C53.34 7.63 53.7 6.94 54.34 6.47C54.87 6.07 55.69 5.85 56.58 5.85C57.18 5.85 57.68 5.89 58.07 6.07C58.46 6.21 58.92 6.47 59.35 6.87L59.35 3.09C59.35 2.58 59.49 2.32 59.84 2.32C60.2 2.32 60.38 2.58 60.38 3.09L60.38 13.85C60.38 14.25 60.24 14.39 59.88 14.39C59.67 14.39 59.53 14.29 59.49 14.03C59.42 13.89 59.38 13.67 59.38 13.38ZM59.31 12.18L59.31 7.92C58.81 7.52 58.42 7.27 58.07 7.16C57.61 7.01 57.18 6.9 56.68 6.9C56.04 6.9 55.51 7.01 55.12 7.3C54.62 7.6 54.34 8.1 54.34 8.69L54.34 11.63C54.34 12.25 54.59 12.69 55.12 13.05C55.58 13.3 56.04 13.45 56.75 13.45C57.29 13.45 57.78 13.34 58.18 13.2C58.53 12.87 58.92 12.58 59.31 12.18ZM63.25 10.29L63.25 11.45C63.25 12.72 64.11 13.3 65.81 13.3C66.45 13.3 66.95 13.27 67.34 13.09C67.55 13.05 67.87 12.83 68.37 12.47C68.65 12.18 68.9 12.03 69.01 12.03C69.29 12.03 69.47 12.18 69.47 12.47C69.47 12.76 69.26 13.12 68.83 13.49C68.16 14.03 67.09 14.36 65.78 14.36C63.4 14.36 62.22 13.41 62.22 11.41L62.22 8.54C62.22 7.89 62.47 7.27 62.97 6.83C63.61 6.18 64.6 5.89 65.88 5.89C68.19 5.89 69.33 7.09 69.33 9.49C69.33 10.1 69.08 10.36 68.69 10.36L63.25 10.29ZM63.25 9.23L68.33 9.23C68.33 7.67 67.48 6.87 65.78 6.87C65.14 6.87 64.6 7.01 64.04 7.34C63.5 7.74 63.25 8.14 63.25 8.65L63.25 9.23ZM71.21 11.01L71.21 6.47C71.21 4.03 72.45 2.87 74.9 2.87C75.9 2.87 76.68 3.12 77.32 3.52C78 4.07 78.35 4.83 78.35 5.81C78.35 6.29 78.21 6.47 77.82 6.47C77.57 6.47 77.36 6.25 77.28 5.81C77.25 5.45 77.07 5.12 76.89 4.8C76.61 4.18 75.9 3.92 74.83 3.92C73.95 3.92 73.27 4.18 72.84 4.61C72.45 5.09 72.31 5.74 72.31 6.69L72.31 10.47C72.31 11.49 72.53 12.18 72.92 12.58C73.34 13.05 74.02 13.34 74.9 13.34C76.29 13.34 77.07 12.83 77.28 11.89C77.39 11.49 77.39 11.34 77.39 11.27C77.5 11.05 77.64 10.98 77.82 10.98C78.17 10.98 78.35 11.23 78.35 11.63C78.35 12.54 77.96 13.23 77.25 13.81C76.65 14.21 75.9 14.43 74.94 14.43C73.8 14.43 72.92 14.18 72.28 13.63C71.57 13.01 71.21 12.1 71.21 11.01ZM85.7 13.38C85.21 13.78 84.81 14.03 84.53 14.14C84.14 14.29 83.68 14.39 83.15 14.39C82.29 14.39 81.58 14.25 81.01 13.85C80.37 13.38 80.09 12.8 80.09 11.92C80.09 11.05 80.45 10.39 81.09 9.89C81.62 9.45 82.36 9.23 83.25 9.23C83.93 9.23 84.74 9.38 85.67 9.74L85.67 8.43C85.67 7.81 85.38 7.38 84.81 7.12C84.42 6.98 83.93 6.87 83.39 6.87C82.04 6.87 81.37 7.27 81.23 8.03C81.19 8.39 81.12 8.58 81.12 8.58C81.01 8.72 80.87 8.83 80.66 8.83C80.27 8.83 80.13 8.61 80.13 8.21C80.13 7.67 80.34 7.16 80.77 6.69C81.26 6.07 82.19 5.81 83.54 5.81C84.57 5.81 85.35 5.96 85.84 6.36C86.45 6.83 86.73 7.52 86.73 8.58L86.73 12.32C86.73 12.76 86.84 13.09 86.98 13.2C86.98 13.2 87.19 13.3 87.48 13.45C87.62 13.56 87.73 13.7 87.73 13.96C87.73 14.25 87.59 14.43 87.27 14.43C87.16 14.43 87.02 14.43 86.8 14.32C86.41 14.18 86.16 14.07 86.13 14.07C85.88 13.89 85.77 13.67 85.7 13.38ZM85.67 12.29L85.67 10.72C84.89 10.47 84.1 10.32 83.43 10.32C81.9 10.32 81.16 10.83 81.16 11.85C81.16 12.39 81.4 12.8 81.83 13.01C82.22 13.23 82.68 13.3 83.22 13.3C83.71 13.3 84.14 13.2 84.53 13.01C84.81 12.94 85.17 12.69 85.67 12.29ZM89.65 6.72C89.89 6.43 90.14 6.18 90.28 6.07C90.53 5.92 90.78 5.81 91.17 5.81C91.71 5.81 92.2 6.1 92.66 6.72C92.95 6.36 93.2 6.1 93.45 6.03C93.69 5.89 94.05 5.81 94.44 5.81C95.68 5.81 96.25 6.43 96.25 7.67L96.25 13.63C96.25 14.14 96.11 14.39 95.72 14.39C95.36 14.39 95.22 14.14 95.22 13.63L95.22 8.03C95.22 7.27 94.94 6.87 94.33 6.87C93.87 6.87 93.45 7.16 93.06 7.74L93.06 13.63C93.06 14.14 92.91 14.39 92.56 14.39C92.2 14.39 92.06 14.14 92.06 13.63L92.06 8.18C92.06 7.3 91.71 6.9 91.07 6.9C90.6 6.9 90.21 7.2 89.82 7.78L89.82 13.7C89.82 14.21 89.68 14.47 89.29 14.47C88.93 14.47 88.79 14.21 88.79 13.7L88.79 6.43C88.79 6.07 88.93 5.89 89.25 5.89C89.4 5.89 89.54 6 89.65 6.18C89.61 6.32 89.65 6.58 89.65 6.72ZM98.88 6.72C99.66 6.1 100.62 5.85 101.65 5.85C103.82 5.85 104.85 6.8 104.85 8.61L104.85 11.63C104.85 12.5 104.56 13.2 103.96 13.7C103.43 14.18 102.68 14.36 101.72 14.36C100.62 14.36 99.7 14.07 98.84 13.45L98.84 16.94C98.84 17.49 98.7 17.74 98.35 17.74C97.99 17.74 97.85 17.49 97.85 16.94L97.85 6.65C97.85 6.1 97.99 5.85 98.28 5.85C98.42 5.85 98.56 5.96 98.67 6.14C98.74 6.36 98.77 6.58 98.88 6.72ZM98.88 12.32C99.63 12.98 100.51 13.34 101.54 13.34C102.18 13.34 102.72 13.23 103.11 12.94C103.6 12.65 103.78 12.18 103.78 11.63L103.78 8.61C103.78 7.96 103.53 7.56 103 7.23C102.61 7.01 102.08 6.94 101.44 6.94C100.83 6.94 100.34 7.05 100.02 7.2C99.66 7.34 99.34 7.67 98.84 8.14L98.84 12.32L98.88 12.32ZM108.36 9.38C108.36 7.05 109.15 4.98 110.67 3.23C111.21 2.58 111.7 2.21 112.02 2.21C112.13 2.21 112.27 2.21 112.31 2.32C112.41 2.43 112.45 2.47 112.45 2.61C112.45 2.76 112.24 3.05 111.85 3.49C110.21 5.09 109.43 7.09 109.43 9.45C109.43 12.07 110.28 14.25 111.95 15.85C112.31 16.14 112.45 16.47 112.45 16.65C112.45 16.76 112.41 16.9 112.31 16.94C112.2 17.05 112.09 17.09 112.02 17.09C111.63 17.09 111.1 16.61 110.39 15.67C109 14 108.36 11.92 108.36 9.38ZM129.82 10C129.82 12.32 129.04 14.39 127.51 16.14C126.98 16.8 126.48 17.16 126.16 17.16C126.05 17.16 125.91 17.16 125.88 17.05C125.77 16.94 125.73 16.83 125.73 16.76C125.73 16.61 125.95 16.29 126.34 15.96C127.97 14.36 128.75 12.36 128.75 10C128.75 7.38 127.9 5.2 126.23 3.6C125.88 3.3 125.73 2.98 125.73 2.8C125.73 2.69 125.77 2.54 125.88 2.5C125.98 2.39 126.09 2.36 126.16 2.36C126.55 2.36 127.08 2.83 127.79 3.78C129.14 5.41 129.82 7.52 129.82 10ZM123.96 16.65L114.15 16.65C113.87 16.65 113.55 16.39 113.55 16.03C113.55 15.67 113.8 15.41 114.15 15.41L123.96 15.41C124.24 15.41 124.56 15.67 124.56 16.03C124.53 16.39 124.35 16.65 123.96 16.65ZM117 3.49C117 3.49 117.85 4.1 117.85 5.09C117.85 6.9 115.43 8.94 115.43 10.83C115.43 12.9 116.96 14.21 118.38 14.61C118.59 14.65 118.66 14.39 118.42 14.36C117.81 14.21 117.14 13.41 117.14 12.14C117.14 10.98 118.24 10.54 118.66 9.96C119.13 9.34 119.02 8.65 118.77 8.43C118.52 8.21 118.66 7.92 119.16 8.29C119.62 8.65 120.05 9.23 119.91 9.85C119.69 10.61 119.94 11.05 120.37 11.12C120.76 11.16 121.22 10.98 121.15 10.61C121.12 10.25 120.9 9.85 121.01 9.85C121.29 9.85 121.9 10.54 121.9 11.67C121.9 12.8 121.01 13.6 120.73 13.89C120.58 14.03 120.76 14.29 121.01 14.18C121.12 14.14 121.36 13.96 121.51 13.89C122.18 13.38 123.32 12.32 123.32 10.36C123.32 8.29 122.57 7.38 121.79 6.61C121.04 5.85 120.87 6.07 121.04 6.39C121.68 7.56 121.29 7.92 120.83 7.92C120.3 7.92 120.23 6.61 120.05 5.63C119.55 3.41 117.63 3.05 117.28 3.05C116.89 3.09 116.53 3.27 117 3.49Z" fill="#006400" fill-opacity="1.000000" fill-rule="nonzero"/>
	</g>
</svg>
