<svg width="138.000000" height="34.000000" viewBox="0 0 138 34" fill="none" xmlns="http://www.w3.org/2000/svg" xmlns:xlink="http://www.w3.org/1999/xlink">
	<desc>
			Created with Pixso.
	</desc>
	<defs>
		<clipPath id="clip1_766">
			<rect id="Frame" width="86.000000" height="26.000000" transform="translate(26.000000 8.000000)" fill="white" fill-opacity="0"/>
		</clipPath>
	</defs>
	<g clip-path="url(#clip1_766)">
		<path id="path8" d="M79.35 28.33C74.35 32.02 67.11 34 60.87 34C52.12 34 44.25 30.75 38.3 25.35C37.83 24.93 38.25 24.35 38.81 24.68C45.24 28.43 53.18 30.69 61.39 30.69C66.93 30.69 73.02 29.54 78.62 27.16C79.47 26.8 80.18 27.71 79.35 28.33Z" fill="#FF9900" fill-opacity="1.000000" fill-rule="evenodd"/>
		<path id="path10" d="M81.43 25.94C80.79 25.12 77.2 25.56 75.59 25.75C75.1 25.81 75.03 25.38 75.47 25.07C78.33 23.06 83.01 23.64 83.56 24.31C84.11 24.99 83.42 29.71 80.73 31.96C80.32 32.3 79.93 32.12 80.11 31.66C80.71 30.15 82.07 26.77 81.43 25.94Z" fill="#FF9900" fill-opacity="1.000000" fill-rule="evenodd"/>
		<path id="path12" d="M75.71 10.83L75.71 8.87C75.71 8.58 75.93 8.38 76.2 8.38L84.95 8.38C85.23 8.38 85.45 8.58 85.45 8.87L85.45 10.55C85.45 10.83 85.21 11.2 84.79 11.78L80.26 18.28C81.95 18.24 83.72 18.49 85.25 19.35C85.6 19.55 85.69 19.83 85.72 20.11L85.72 22.21C85.72 22.49 85.4 22.83 85.07 22.65C82.38 21.24 78.8 21.08 75.83 22.67C75.53 22.83 75.21 22.5 75.21 22.22L75.21 20.23C75.21 19.91 75.21 19.37 75.53 18.88L80.78 11.33L76.21 11.33C75.93 11.33 75.71 11.13 75.71 10.83Z" fill="#000000" fill-opacity="1.000000" fill-rule="evenodd"/>
		<path id="path14" d="M43.79 23.07L41.13 23.07C40.88 23.05 40.67 22.86 40.65 22.61L40.65 8.91C40.65 8.63 40.88 8.42 41.17 8.42L43.65 8.42C43.91 8.43 44.11 8.63 44.13 8.87L44.13 10.66L44.18 10.66C44.83 8.93 46.05 8.13 47.69 8.13C49.35 8.13 50.39 8.93 51.14 10.66C51.78 8.93 53.25 8.13 54.82 8.13C55.93 8.13 57.15 8.59 57.9 9.62C58.74 10.78 58.57 12.45 58.57 13.92L58.56 22.57C58.56 22.84 58.34 23.07 58.05 23.07L55.39 23.07C55.13 23.05 54.91 22.83 54.91 22.57L54.91 15.31C54.91 14.73 54.97 13.29 54.84 12.74C54.64 11.82 54.05 11.56 53.27 11.56C52.63 11.56 51.96 11.99 51.68 12.68C51.41 13.37 51.44 14.53 51.44 15.31L51.44 22.57C51.44 22.84 51.21 23.07 50.92 23.07L48.27 23.07C48 23.05 47.79 22.83 47.79 22.57L47.78 15.31C47.78 13.78 48.03 11.53 46.14 11.53C44.23 11.53 44.3 13.72 44.3 15.31L44.3 22.57C44.3 22.84 44.08 23.07 43.79 23.07Z" fill="#000000" fill-opacity="1.000000" fill-rule="evenodd"/>
		<path id="path16" d="M92.99 8.13C96.93 8.13 99.07 11.53 99.07 15.86C99.07 20.04 96.71 23.35 92.99 23.35C89.11 23.35 87 19.95 87 15.71C87 11.44 89.13 8.13 92.99 8.13ZM93.01 10.92C91.05 10.92 90.92 13.61 90.92 15.28C90.92 16.95 90.9 20.53 92.99 20.53C95.05 20.53 95.15 17.64 95.15 15.89C95.15 14.73 95.1 13.35 94.75 12.25C94.45 11.3 93.85 10.92 93.01 10.92Z" fill="#000000" fill-opacity="1.000000" fill-rule="evenodd"/>
		<path id="path18" d="M104.19 23.07L101.54 23.07C101.28 23.05 101.06 22.83 101.06 22.57L101.06 8.86C101.08 8.61 101.3 8.42 101.57 8.42L104.04 8.42C104.27 8.43 104.46 8.58 104.52 8.8L104.52 10.89L104.56 10.89C105.31 9.02 106.35 8.13 108.19 8.13C109.39 8.13 110.55 8.56 111.3 9.74C112 10.84 112 12.68 112 14.01L112 22.63C111.97 22.87 111.74 23.07 111.48 23.07L108.81 23.07C108.57 23.05 108.37 22.87 108.34 22.63L108.34 15.19C108.34 13.69 108.51 11.5 106.68 11.5C106.03 11.5 105.43 11.93 105.14 12.6C104.76 13.43 104.71 14.27 104.71 15.19L104.71 22.57C104.71 22.84 104.48 23.07 104.19 23.07Z" fill="#000000" fill-opacity="1.000000" fill-rule="evenodd"/>
		<path id="path28" d="M68.73 16.52C68.73 17.56 68.76 18.43 68.23 19.35C67.81 20.1 67.14 20.56 66.39 20.56C65.37 20.56 64.77 19.78 64.77 18.63C64.77 16.35 66.8 15.94 68.73 15.94L68.73 16.52ZM71.42 23.03C71.24 23.19 70.98 23.2 70.79 23.09C69.9 22.36 69.74 22.01 69.26 21.31C67.8 22.81 66.76 23.25 64.87 23.25C62.63 23.25 60.89 21.87 60.89 19.09C60.89 16.93 62.06 15.45 63.73 14.73C65.17 14.09 67.19 13.98 68.73 13.8L68.73 13.46C68.73 12.82 68.78 12.07 68.41 11.52C68.08 11.03 67.46 10.83 66.91 10.83C65.9 10.83 65 11.35 64.77 12.43C64.73 12.67 64.55 12.91 64.31 12.92L61.73 12.64C61.51 12.59 61.27 12.42 61.33 12.08C61.93 8.94 64.76 8 67.29 8C68.58 8 70.27 8.34 71.3 9.32C72.59 10.54 72.47 12.16 72.47 13.92L72.47 18.08C72.47 19.33 72.98 19.88 73.47 20.55C73.64 20.79 73.68 21.08 73.46 21.26C72.92 21.72 71.95 22.56 71.42 23.04L71.42 23.03Z" fill="#000000" fill-opacity="1.000000" fill-rule="evenodd"/>
		<path id="path30" d="M33.84 16.52C33.84 17.56 33.86 18.43 33.34 19.35C32.92 20.1 32.25 20.56 31.5 20.56C30.48 20.56 29.88 19.78 29.88 18.63C29.88 16.35 31.91 15.94 33.84 15.94L33.84 16.52ZM36.52 23.03C36.35 23.19 36.09 23.2 35.89 23.09C35.01 22.36 34.85 22.01 34.37 21.31C32.91 22.81 31.87 23.25 29.98 23.25C27.74 23.25 26 21.87 26 19.09C26 16.93 27.17 15.45 28.83 14.73C30.28 14.09 32.3 13.98 33.84 13.8L33.84 13.46C33.84 12.82 33.89 12.07 33.52 11.52C33.19 11.03 32.57 10.83 32.02 10.83C31.01 10.83 30.1 11.35 29.88 12.43C29.84 12.67 29.66 12.91 29.42 12.92L26.84 12.64C26.62 12.59 26.38 12.42 26.44 12.08C27.04 8.94 29.86 8 32.39 8C33.69 8 35.38 8.34 36.4 9.32C37.7 10.54 37.57 12.16 37.57 13.92L37.57 18.08C37.57 19.33 38.09 19.88 38.58 20.55C38.75 20.79 38.79 21.08 38.57 21.26C38.03 21.72 37.06 22.56 36.53 23.04L36.52 23.03Z" fill="#000000" fill-opacity="1.000000" fill-rule="evenodd"/>
	</g>
</svg>
