<svg width="138.000000" height="36.000000" viewBox="0 0 138 36" fill="none" xmlns="http://www.w3.org/2000/svg" xmlns:xlink="http://www.w3.org/1999/xlink">
	<desc>
			Created with Pixso.
	</desc>
	<defs>
		<clipPath id="clip1_757">
			<rect id="Frame" width="86.000000" height="29.000000" transform="translate(26.000000 4.000000)" fill="white" fill-opacity="0"/>
		</clipPath>
	</defs>
	<g clip-path="url(#clip1_757)">
		<path id="Vector" d="M62.59 18.87C62.59 22.89 59.43 25.86 55.56 25.86C51.68 25.86 48.52 22.89 48.52 18.87C48.52 14.81 51.68 11.88 55.56 11.88C59.43 11.88 62.59 14.81 62.59 18.87ZM59.51 18.87C59.51 16.35 57.68 14.63 55.56 14.63C53.43 14.63 51.6 16.35 51.6 18.87C51.6 21.36 53.43 23.1 55.56 23.1C57.68 23.1 59.51 21.35 59.51 18.87Z" fill="#EA4335" fill-opacity="1.000000" fill-rule="nonzero"/>
		<path id="Vector" d="M77.77 18.87C77.77 22.89 74.61 25.86 70.73 25.86C66.86 25.86 63.7 22.89 63.7 18.87C63.7 14.82 66.86 11.88 70.73 11.88C74.61 11.88 77.77 14.81 77.77 18.87ZM74.69 18.87C74.69 16.35 72.86 14.63 70.73 14.63C68.61 14.63 66.78 16.35 66.78 18.87C66.78 21.36 68.61 23.1 70.73 23.1C72.86 23.1 74.69 21.35 74.69 18.87Z" fill="#FBBC05" fill-opacity="1.000000" fill-rule="nonzero"/>
		<path id="Vector" d="M92.31 12.3L92.31 24.85C92.31 30.01 89.26 32.12 85.65 32.12C82.25 32.12 80.2 29.86 79.43 28L82.11 26.89C82.59 28.03 83.76 29.37 85.64 29.37C87.96 29.37 89.39 27.95 89.39 25.27L89.39 24.27L89.28 24.27C88.59 25.11 87.26 25.86 85.59 25.86C82.08 25.86 78.87 22.81 78.87 18.89C78.87 14.95 82.08 11.88 85.59 11.88C87.26 11.88 88.59 12.62 89.28 13.44L89.39 13.44L89.39 12.3L92.31 12.3L92.31 12.3ZM89.61 18.89C89.61 16.43 87.96 14.63 85.86 14.63C83.74 14.63 81.96 16.43 81.96 18.89C81.96 21.33 83.74 23.1 85.86 23.1C87.96 23.1 89.61 21.33 89.61 18.89Z" fill="#4285F4" fill-opacity="1.000000" fill-rule="nonzero"/>
		<path id="Vector" d="M97.13 4.94L97.13 25.43L94.13 25.43L94.13 4.94L97.13 4.94Z" fill="#34A853" fill-opacity="1.000000" fill-rule="nonzero"/>
		<path id="Vector" d="M108.84 21.17L111.23 22.76C110.46 23.89 108.6 25.86 105.39 25.86C101.4 25.86 98.43 22.79 98.43 18.86C98.43 14.71 101.43 11.87 105.04 11.87C108.68 11.87 110.46 14.76 111.04 16.32L111.36 17.11L101.99 20.99C102.71 22.39 103.82 23.1 105.39 23.1C106.96 23.1 108.04 22.33 108.84 21.17ZM101.48 18.65L107.75 16.06C107.4 15.19 106.37 14.58 105.15 14.58C103.58 14.58 101.4 15.95 101.48 18.65Z" fill="#EA4335" fill-opacity="1.000000" fill-rule="nonzero"/>
		<path id="Vector" d="M37.15 17.05L37.15 14.08L47.18 14.08C47.28 14.6 47.33 15.21 47.33 15.87C47.33 18.1 46.72 20.85 44.75 22.81C42.84 24.8 40.39 25.86 37.16 25.86C31.16 25.86 26.11 20.98 26.11 15C26.11 9.02 31.16 4.14 37.16 4.14C40.48 4.14 42.84 5.44 44.62 7.13L42.52 9.23C41.24 8.04 39.52 7.11 37.15 7.11C32.77 7.11 29.34 10.63 29.34 15C29.34 19.37 32.77 22.89 37.15 22.89C40 22.89 41.61 21.75 42.65 20.72C43.49 19.88 44.05 18.68 44.26 17.04L37.15 17.05Z" fill="#4285F4" fill-opacity="1.000000" fill-rule="nonzero"/>
	</g>
</svg>
