<svg width="138.000000" height="82.000000" viewBox="0 0 138 82" fill="none" xmlns="http://www.w3.org/2000/svg" xmlns:xlink="http://www.w3.org/1999/xlink">
	<desc>
			Created with Pixso.
	</desc>
	<defs>
		<clipPath id="clip1_750">
			<rect id="Frame" width="124.000000" height="82.000000" transform="translate(7.000000 0.000000)" fill="white" fill-opacity="0"/>
		</clipPath>
	</defs>
	<g clip-path="url(#clip1_750)">
		<path id="Vector" d="M84.58 41.69C83.88 42.3 83.02 42.61 82.03 42.61L74.79 42.61C73.8 42.61 72.96 42.3 72.26 41.69C71.57 41.08 71.21 40.29 71.21 39.33L71.21 38.75C71.21 37.83 71.57 37.06 72.31 36.43C73.04 35.78 73.86 35.47 74.79 35.47L79.4 35.47L79.4 37.64L74.79 37.64C74.47 37.64 74.2 37.75 73.93 37.96C73.65 38.18 73.53 38.43 73.53 38.75L73.53 39.33C73.53 40.06 73.95 40.42 74.79 40.42L82.03 40.42C82.89 40.42 83.31 40.06 83.31 39.33L83.31 33.74C83.31 33.45 83.19 33.2 82.91 32.97C82.64 32.74 82.34 32.63 82.03 32.63L71.42 32.63L71.42 30.46L82.03 30.46C82.97 30.46 83.8 30.77 84.51 31.42C85.25 32.07 85.61 32.84 85.61 33.74L85.61 39.33C85.61 40.29 85.27 41.08 84.58 41.69L84.58 41.69ZM99.12 39.33C98.56 41.52 97.38 42.61 95.55 42.61L92.43 42.61C90.6 42.61 89.42 41.52 88.86 39.33L86.56 30.46L89.02 30.46L91.23 38.92C91.49 39.92 92.01 40.42 92.77 40.42L95.21 40.42C95.99 40.42 96.54 39.92 96.79 38.92L98.98 30.46L101.44 30.46L99.12 39.33ZM115.59 36.64C114.85 37.29 114.03 37.6 113.11 37.6L108.48 37.6L108.48 35.41L113.11 35.41C113.4 35.41 113.68 35.3 113.95 35.09C114.22 34.86 114.37 34.61 114.37 34.32L114.37 33.74C114.37 33.01 113.95 32.63 113.11 32.63L105.85 32.63C105 32.63 104.58 33.01 104.58 33.74L104.58 39.31C104.58 39.62 104.71 39.87 104.98 40.08C105.26 40.31 105.53 40.42 105.85 40.42L116.47 40.42L116.47 42.59L105.85 42.59C104.92 42.59 104.1 42.27 103.36 41.65C102.63 41 102.27 40.23 102.27 39.31L102.27 33.74C102.27 32.76 102.63 31.98 103.32 31.38C104.02 30.77 104.86 30.46 105.85 30.46L113.11 30.46C114.1 30.46 114.94 30.77 115.63 31.36C116.33 31.96 116.68 32.76 116.68 33.74L116.68 34.32C116.68 35.22 116.33 35.99 115.59 36.64L115.59 36.64ZM41.57 36.52C41.57 37.32 40.91 37.97 40.11 37.97C39.3 37.97 38.65 37.32 38.65 36.52C38.65 35.72 39.3 35.07 40.11 35.07C40.91 35.07 41.57 35.72 41.57 36.52ZM41.57 31.89C41.57 32.69 40.91 33.34 40.11 33.34C39.3 33.34 38.65 32.69 38.65 31.89C38.65 31.09 39.3 30.45 40.11 30.45C40.91 30.45 41.57 31.09 41.57 31.89ZM46.42 41.14C46.42 41.94 45.77 42.59 44.96 42.59C44.15 42.59 43.5 41.94 43.5 41.14C43.5 40.34 44.15 39.69 44.96 39.69C45.77 39.69 46.42 40.34 46.42 41.14Z" fill="#1D2329" fill-opacity="1.000000" fill-rule="nonzero"/>
		<path id="Vector" d="M46.42 36.52C46.42 37.32 45.77 37.97 44.96 37.97C44.15 37.97 43.5 37.32 43.5 36.52C43.5 35.72 44.15 35.07 44.96 35.07C45.77 35.07 46.42 35.72 46.42 36.52Z" fill="#3875E1" fill-opacity="1.000000" fill-rule="nonzero"/>
		<path id="Vector" d="M58.71 39.31L58.66 39.52C58.07 41.55 56.92 42.56 55.16 42.56L53.56 42.56C51.73 42.56 50.56 41.48 49.99 39.3L47.71 30.46L50.16 30.46L52.36 38.88C52.61 39.88 53.14 40.38 53.89 40.38L54.83 40.38C55.6 40.38 56.15 39.88 56.4 38.89C56.4 38.89 56.97 37.14 58.71 37.12C58.71 37.12 60.42 36.95 61.01 38.82L61.04 38.88L58.71 39.31Z" fill="#1D2329" fill-opacity="1.000000" fill-rule="nonzero"/>
		<path id="Vector" d="M61.04 38.88C61.27 39.84 61.86 40.38 62.61 40.38L63.55 40.38C64.32 40.38 64.86 39.88 65.12 38.88L67.3 30.46L69.75 30.46L67.44 39.3C66.88 41.48 65.7 42.56 63.88 42.56L62.28 42.56C60.45 42.56 59.27 41.47 58.7 39.29L61.04 38.88ZM33.82 33.74C33.82 33.44 33.7 33.19 33.43 32.96C33.16 32.73 32.89 32.63 32.57 32.63L23.57 32.63L23.57 40.43L32.57 40.43C33.41 40.43 33.82 40.08 33.82 39.35L33.82 33.74ZM35.1 41.71C34.41 42.32 33.55 42.63 32.57 42.63L21.3 42.63L21.3 30.45L32.57 30.45C33.49 30.45 34.3 30.76 35.03 31.41C35.76 32.06 36.12 32.84 36.12 33.74L36.12 39.35C36.12 40.31 35.78 41.1 35.1 41.71ZM21.42 45.87L24.99 45.87L24.99 46.41L23.5 46.41L23.5 50.11L22.88 50.11L22.88 46.41L21.42 46.41L21.42 45.87ZM25.47 45.87L26.02 45.87L26.02 47.67C26.26 47.39 26.55 47.25 26.89 47.25C27.08 47.25 27.25 47.3 27.4 47.39C27.55 47.48 27.66 47.61 27.73 47.78C27.8 47.94 27.84 48.19 27.84 48.51L27.84 50.11L27.28 50.11L27.28 48.37C27.28 48.17 27.23 48.01 27.13 47.88C27.03 47.76 26.9 47.69 26.73 47.69C26.61 47.69 26.49 47.72 26.38 47.79C26.27 47.85 26.15 47.95 26.02 48.1L26.02 50.11L25.47 50.11L25.47 45.87ZM29.02 48.42L30.44 48.42C30.43 48.2 30.36 48.03 30.24 47.91C30.12 47.79 29.96 47.73 29.76 47.73C29.56 47.73 29.4 47.79 29.27 47.91C29.15 48.03 29.06 48.2 29.02 48.42L29.02 48.42ZM30.99 48.76L29.01 48.76C29.02 49.03 29.11 49.24 29.28 49.4C29.44 49.56 29.66 49.64 29.92 49.64C30.29 49.64 30.63 49.52 30.94 49.29L30.94 49.83C30.77 49.95 30.6 50.03 30.43 50.08C30.26 50.12 30.07 50.15 29.84 50.15C29.53 50.15 29.28 50.08 29.09 49.96C28.89 49.83 28.74 49.66 28.62 49.44C28.51 49.22 28.45 48.97 28.45 48.69C28.45 48.26 28.57 47.92 28.81 47.65C29.06 47.38 29.37 47.25 29.76 47.25C30.14 47.25 30.43 47.38 30.66 47.64C30.88 47.9 30.99 48.25 30.99 48.69L30.99 48.76ZM35.52 46.38C35.04 46.38 34.64 46.53 34.33 46.84C34.01 47.15 33.86 47.54 33.86 48.01C33.86 48.46 34.02 48.84 34.33 49.14C34.64 49.45 35.04 49.6 35.52 49.6C35.99 49.6 36.38 49.44 36.7 49.13C37.03 48.82 37.19 48.44 37.19 47.99C37.19 47.52 37.03 47.14 36.71 46.83C36.4 46.53 36 46.38 35.52 46.38ZM37.72 50.37L37.11 50.97C36.91 50.96 36.71 50.93 36.5 50.87C36.3 50.81 36.08 50.73 35.87 50.63C35.66 50.53 35.37 50.35 35.01 50.11C34.49 50.02 34.06 49.77 33.73 49.37C33.39 48.98 33.22 48.52 33.22 48C33.22 47.37 33.44 46.84 33.87 46.43C34.31 46.01 34.86 45.81 35.52 45.81C36.18 45.81 36.73 46.01 37.17 46.42C37.6 46.83 37.82 47.35 37.82 47.98C37.82 48.5 37.66 48.96 37.32 49.36C36.99 49.76 36.57 50.01 36.04 50.11L36.2 50.17C36.71 50.36 37.07 50.46 37.29 50.46C37.41 50.46 37.56 50.43 37.72 50.37L37.72 50.37ZM40.32 50.11L40.32 49.75C40.2 49.88 40.07 49.98 39.91 50.05C39.76 50.12 39.61 50.15 39.46 50.15C39.28 50.15 39.11 50.11 38.96 50.02C38.81 49.94 38.7 49.82 38.62 49.66C38.54 49.51 38.5 49.26 38.5 48.91L38.5 47.31L39.06 47.31L39.06 48.91C39.06 49.2 39.1 49.41 39.19 49.52C39.28 49.64 39.43 49.7 39.64 49.7C39.91 49.7 40.14 49.57 40.32 49.31L40.32 47.31L40.88 47.31L40.88 50.11L40.32 50.11ZM42.93 49.55L42.93 48.72L42.55 48.86C42.36 48.94 42.23 49.01 42.15 49.09C42.07 49.16 42.03 49.26 42.03 49.37C42.03 49.49 42.07 49.58 42.14 49.66C42.22 49.73 42.31 49.77 42.43 49.77C42.61 49.77 42.77 49.7 42.93 49.55L42.93 49.55ZM43.47 48.42L43.47 49.61C43.47 49.7 43.51 49.75 43.57 49.75C43.64 49.75 43.75 49.7 43.89 49.6L43.89 49.94C43.76 50.02 43.66 50.08 43.59 50.11C43.51 50.14 43.43 50.15 43.35 50.15C43.11 50.15 42.97 50.06 42.93 49.87C42.69 50.06 42.44 50.15 42.17 50.15C41.97 50.15 41.81 50.08 41.67 49.96C41.54 49.83 41.48 49.66 41.48 49.47C41.48 49.29 41.54 49.14 41.67 49C41.8 48.86 41.98 48.75 42.21 48.67L42.93 48.42L42.93 48.27C42.93 47.93 42.76 47.76 42.42 47.76C42.11 47.76 41.82 47.92 41.53 48.23L41.53 47.63C41.75 47.38 42.06 47.25 42.46 47.25C42.77 47.25 43.01 47.33 43.2 47.49C43.26 47.54 43.31 47.6 43.36 47.69C43.41 47.77 43.44 47.86 43.45 47.94C43.47 48.03 43.47 48.18 43.47 48.42L43.47 48.42ZM44.92 47.31L44.92 47.65C45.17 47.38 45.46 47.25 45.77 47.25C45.95 47.25 46.11 47.29 46.26 47.39C46.41 47.48 46.53 47.6 46.61 47.76C46.69 47.91 46.73 48.16 46.73 48.51L46.73 50.11L46.17 50.11L46.17 48.51C46.17 48.22 46.13 48.02 46.04 47.89C45.95 47.77 45.8 47.71 45.6 47.71C45.33 47.71 45.11 47.84 44.92 48.1L44.92 50.11L44.35 50.11L44.35 47.31L44.92 47.31ZM47.09 47.75L48.14 46.73L48.14 47.31L49.04 47.31L49.04 47.81L48.14 47.81L48.14 49.18C48.14 49.5 48.28 49.66 48.54 49.66C48.74 49.66 48.95 49.59 49.18 49.46L49.18 49.98C48.96 50.1 48.73 50.16 48.48 50.16C48.22 50.16 48.01 50.08 47.84 49.93C47.79 49.89 47.75 49.84 47.71 49.78C47.67 49.73 47.65 49.65 47.62 49.56C47.6 49.48 47.59 49.3 47.59 49.05L47.59 47.81L47.09 47.81L47.09 47.75ZM51.39 50.11L51.39 49.75C51.27 49.88 51.14 49.98 50.98 50.05C50.83 50.12 50.68 50.15 50.53 50.15C50.35 50.15 50.18 50.11 50.03 50.02C49.88 49.94 49.77 49.82 49.69 49.66C49.61 49.51 49.57 49.26 49.57 48.91L49.57 47.31L50.13 47.31L50.13 48.91C50.13 49.2 50.17 49.41 50.26 49.52C50.34 49.64 50.49 49.7 50.71 49.7C50.98 49.7 51.2 49.57 51.39 49.31L51.39 47.31L51.95 47.31L51.95 50.11L51.39 50.11ZM55.02 48.08L55.02 50.11L54.46 50.11L54.46 48.54C54.46 48.23 54.42 48.02 54.33 47.89C54.25 47.77 54.1 47.71 53.9 47.71C53.78 47.71 53.67 47.73 53.58 47.79C53.48 47.85 53.37 47.94 53.25 48.08L53.25 50.11L52.69 50.11L52.69 47.31L53.25 47.31L53.25 47.68C53.53 47.39 53.81 47.25 54.08 47.25C54.44 47.25 54.71 47.42 54.91 47.76C55.21 47.42 55.52 47.25 55.84 47.25C56.11 47.25 56.34 47.35 56.51 47.55C56.69 47.75 56.78 48.05 56.78 48.46L56.78 50.11L56.22 50.11L56.22 48.45C56.22 48.21 56.17 48.03 56.08 47.91C55.98 47.79 55.85 47.72 55.67 47.72C55.44 47.72 55.22 47.84 55.02 48.08L55.02 48.08ZM63.06 49.12L63.06 49.79C62.61 50.03 62.09 50.16 61.5 50.16C61.03 50.16 60.62 50.06 60.29 49.87C59.96 49.68 59.69 49.42 59.5 49.08C59.3 48.75 59.21 48.39 59.21 48C59.21 47.38 59.43 46.86 59.87 46.44C60.32 46.02 60.86 45.8 61.52 45.8C61.96 45.8 62.46 45.92 63.01 46.15L63.01 46.81C62.51 46.52 62.02 46.38 61.55 46.38C61.06 46.38 60.65 46.53 60.33 46.84C60 47.15 59.84 47.53 59.84 48C59.84 48.46 60 48.85 60.32 49.15C60.64 49.45 61.04 49.6 61.54 49.6C62.06 49.6 62.57 49.44 63.06 49.12L63.06 49.12ZM65.01 47.8C64.75 47.8 64.53 47.89 64.36 48.06C64.19 48.24 64.1 48.46 64.1 48.73C64.1 48.99 64.19 49.21 64.37 49.38C64.54 49.55 64.77 49.64 65.04 49.64C65.31 49.64 65.53 49.55 65.71 49.38C65.88 49.21 65.97 48.99 65.97 48.72C65.97 48.46 65.88 48.24 65.7 48.06C65.52 47.89 65.29 47.8 65.01 47.8L65.01 47.8ZM65.04 47.3C65.47 47.3 65.83 47.44 66.11 47.72C66.39 47.99 66.53 48.34 66.53 48.75C66.53 49.15 66.39 49.49 66.1 49.76C65.82 50.02 65.45 50.16 65.02 50.16C64.6 50.16 64.25 50.02 63.96 49.75C63.68 49.48 63.54 49.14 63.54 48.74C63.54 48.33 63.68 47.99 63.97 47.71C64.25 47.44 64.61 47.3 65.04 47.3L65.04 47.3ZM69.46 48.08L69.46 50.11L68.89 50.11L68.89 48.54C68.89 48.23 68.85 48.02 68.77 47.89C68.68 47.77 68.54 47.71 68.33 47.71C68.22 47.71 68.11 47.73 68.01 47.79C67.91 47.85 67.8 47.94 67.68 48.08L67.68 50.11L67.12 50.11L67.12 47.31L67.68 47.31L67.68 47.68C67.96 47.39 68.24 47.25 68.51 47.25C68.87 47.25 69.15 47.42 69.34 47.76C69.64 47.42 69.95 47.25 70.27 47.25C70.55 47.25 70.77 47.35 70.95 47.55C71.12 47.75 71.21 48.05 71.21 48.46L71.21 50.11L70.66 50.11L70.66 48.45C70.66 48.21 70.61 48.03 70.51 47.91C70.42 47.79 70.28 47.72 70.1 47.72C69.87 47.72 69.66 47.84 69.46 48.08L69.46 48.08ZM72.94 47.83L72.55 47.83L72.55 49.55C72.72 49.64 72.9 49.68 73.08 49.68C73.34 49.68 73.56 49.59 73.72 49.41C73.89 49.23 73.97 49 73.97 48.72C73.97 48.53 73.93 48.37 73.85 48.23C73.77 48.09 73.67 47.99 73.53 47.93C73.4 47.86 73.2 47.83 72.94 47.83L72.94 47.83ZM71.97 51.54L71.97 47.31L72.95 47.31C73.45 47.31 73.84 47.44 74.12 47.68C74.4 47.93 74.54 48.27 74.54 48.72C74.54 49.14 74.4 49.48 74.14 49.75C73.88 50.02 73.55 50.16 73.14 50.16C72.96 50.16 72.76 50.12 72.55 50.04L72.55 51.54L71.97 51.54ZM76.93 50.11L76.93 49.75C76.81 49.88 76.68 49.98 76.52 50.05C76.37 50.12 76.22 50.15 76.07 50.15C75.89 50.15 75.72 50.11 75.57 50.02C75.42 49.94 75.31 49.82 75.23 49.66C75.16 49.51 75.12 49.26 75.12 48.91L75.12 47.31L75.67 47.31L75.67 48.91C75.67 49.2 75.71 49.41 75.8 49.52C75.89 49.64 76.04 49.7 76.25 49.7C76.52 49.7 76.75 49.57 76.93 49.31L76.93 47.31L77.49 47.31L77.49 50.11L76.93 50.11ZM77.89 47.75L78.94 46.73L78.94 47.31L79.83 47.31L79.83 47.81L78.94 47.81L78.94 49.18C78.94 49.5 79.07 49.66 79.34 49.66C79.54 49.66 79.75 49.59 79.97 49.46L79.97 49.98C79.76 50.1 79.52 50.16 79.27 50.16C79.01 50.16 78.8 50.08 78.63 49.93C78.58 49.89 78.54 49.84 78.5 49.78C78.47 49.73 78.44 49.65 78.42 49.56C78.39 49.48 78.38 49.3 78.38 49.05L78.38 47.81L77.89 47.81L77.89 47.75ZM80.41 47.31L80.97 47.31L80.97 50.11L80.41 50.11L80.41 47.31ZM80.69 46.14C80.78 46.14 80.86 46.17 80.93 46.23C80.99 46.3 81.03 46.37 81.03 46.46C81.03 46.55 80.99 46.63 80.93 46.69C80.86 46.76 80.78 46.79 80.69 46.79C80.61 46.79 80.53 46.76 80.47 46.69C80.4 46.63 80.37 46.55 80.37 46.46C80.37 46.38 80.4 46.3 80.47 46.24C80.53 46.17 80.61 46.14 80.69 46.14L80.69 46.14ZM82.32 47.31L82.32 47.65C82.57 47.38 82.86 47.25 83.17 47.25C83.35 47.25 83.51 47.29 83.66 47.39C83.81 47.48 83.93 47.6 84.01 47.76C84.09 47.91 84.13 48.16 84.13 48.51L84.13 50.11L83.57 50.11L83.57 48.51C83.57 48.22 83.53 48.02 83.44 47.89C83.35 47.77 83.2 47.71 83 47.71C82.73 47.71 82.51 47.84 82.32 48.1L82.32 50.11L81.75 50.11L81.75 47.31L82.32 47.31ZM85.77 47.79C85.62 47.79 85.49 47.85 85.39 47.95C85.28 48.05 85.23 48.17 85.23 48.31C85.23 48.46 85.28 48.58 85.38 48.67C85.49 48.76 85.62 48.81 85.78 48.81C85.94 48.81 86.07 48.76 86.17 48.67C86.28 48.57 86.33 48.45 86.33 48.31C86.33 48.16 86.28 48.04 86.17 47.94C86.07 47.84 85.93 47.79 85.77 47.79L85.77 47.79ZM85.64 50.24C85.45 50.24 85.3 50.28 85.18 50.36C85.06 50.44 85 50.54 85 50.67C85 50.95 85.26 51.1 85.78 51.1C86.03 51.1 86.22 51.06 86.36 50.99C86.49 50.92 86.56 50.81 86.56 50.68C86.56 50.55 86.47 50.45 86.3 50.37C86.13 50.28 85.91 50.24 85.64 50.24L85.64 50.24ZM84.73 48.28C84.73 47.98 84.84 47.75 85.05 47.57C85.27 47.4 85.57 47.31 85.95 47.31L87.11 47.31L87.11 47.75L86.55 47.75C86.66 47.86 86.73 47.96 86.78 48.05C86.82 48.14 86.84 48.25 86.84 48.36C86.84 48.51 86.8 48.65 86.71 48.79C86.63 48.93 86.52 49.04 86.39 49.12C86.26 49.19 86.04 49.25 85.74 49.3C85.53 49.33 85.42 49.4 85.42 49.51C85.42 49.58 85.46 49.63 85.54 49.67C85.62 49.72 85.76 49.76 85.97 49.8C86.31 49.88 86.54 49.94 86.64 49.98C86.73 50.02 86.82 50.08 86.9 50.16C87.04 50.3 87.11 50.46 87.11 50.67C87.11 50.93 86.99 51.14 86.75 51.3C86.51 51.46 86.19 51.54 85.8 51.54C85.4 51.54 85.07 51.46 84.83 51.3C84.6 51.14 84.48 50.93 84.48 50.66C84.48 50.28 84.71 50.04 85.18 49.93C84.99 49.81 84.9 49.69 84.9 49.57C84.9 49.48 84.94 49.4 85.02 49.33C85.1 49.25 85.21 49.2 85.35 49.17C84.93 48.98 84.73 48.69 84.73 48.28L84.73 48.28ZM93.05 49.12L93.05 49.79C92.61 50.03 92.09 50.16 91.5 50.16C91.02 50.16 90.62 50.06 90.28 49.87C89.95 49.68 89.69 49.42 89.49 49.08C89.3 48.75 89.2 48.39 89.2 48C89.2 47.38 89.42 46.86 89.87 46.44C90.31 46.02 90.86 45.8 91.51 45.8C91.96 45.8 92.46 45.92 93.01 46.15L93.01 46.81C92.51 46.52 92.02 46.38 91.54 46.38C91.05 46.38 90.64 46.53 90.32 46.84C90 47.15 89.84 47.53 89.84 48C89.84 48.46 89.99 48.85 90.31 49.15C90.63 49.45 91.04 49.6 91.54 49.6C92.05 49.6 92.56 49.44 93.05 49.12L93.05 49.12ZM95.01 47.8C94.74 47.8 94.53 47.89 94.35 48.06C94.18 48.24 94.1 48.46 94.1 48.73C94.1 48.99 94.19 49.21 94.36 49.38C94.53 49.55 94.76 49.64 95.03 49.64C95.31 49.64 95.53 49.55 95.7 49.38C95.88 49.21 95.96 48.99 95.96 48.72C95.96 48.46 95.87 48.24 95.69 48.06C95.51 47.89 95.28 47.8 95.01 47.8L95.01 47.8ZM95.04 47.3C95.47 47.3 95.82 47.44 96.1 47.72C96.39 47.99 96.53 48.34 96.53 48.75C96.53 49.15 96.38 49.49 96.1 49.76C95.81 50.02 95.45 50.16 95.01 50.16C94.59 50.16 94.24 50.02 93.96 49.75C93.68 49.48 93.54 49.14 93.54 48.74C93.54 48.33 93.68 47.99 93.96 47.71C94.25 47.44 94.61 47.3 95.04 47.3L95.04 47.3ZM99.45 48.08L99.45 50.11L98.89 50.11L98.89 48.54C98.89 48.23 98.85 48.02 98.76 47.89C98.68 47.77 98.53 47.71 98.33 47.71C98.21 47.71 98.1 47.73 98.01 47.79C97.91 47.85 97.8 47.94 97.67 48.08L97.67 50.11L97.12 50.11L97.12 47.31L97.67 47.31L97.67 47.68C97.96 47.39 98.24 47.25 98.51 47.25C98.87 47.25 99.14 47.42 99.34 47.76C99.64 47.42 99.95 47.25 100.27 47.25C100.54 47.25 100.77 47.35 100.94 47.55C101.12 47.75 101.21 48.05 101.21 48.46L101.21 50.11L100.65 50.11L100.65 48.45C100.65 48.21 100.6 48.03 100.51 47.91C100.41 47.79 100.28 47.72 100.1 47.72C99.87 47.72 99.65 47.84 99.45 48.08L99.45 48.08ZM102.93 47.83L102.54 47.83L102.54 49.55C102.71 49.64 102.89 49.68 103.08 49.68C103.34 49.68 103.55 49.59 103.72 49.41C103.88 49.23 103.97 49 103.97 48.72C103.97 48.53 103.93 48.37 103.85 48.23C103.77 48.09 103.66 47.99 103.53 47.93C103.39 47.86 103.19 47.83 102.93 47.83L102.93 47.83ZM101.97 51.54L101.97 47.31L102.95 47.31C103.45 47.31 103.83 47.44 104.11 47.68C104.39 47.93 104.53 48.27 104.53 48.72C104.53 49.14 104.4 49.48 104.14 49.75C103.88 50.02 103.54 50.16 103.14 50.16C102.96 50.16 102.76 50.12 102.54 50.04L102.54 51.54L101.97 51.54ZM106.39 49.55L106.39 48.72L106.02 48.86C105.83 48.94 105.69 49.01 105.62 49.09C105.54 49.16 105.5 49.26 105.5 49.37C105.5 49.49 105.54 49.58 105.61 49.66C105.69 49.73 105.78 49.77 105.9 49.77C106.08 49.77 106.24 49.7 106.39 49.55L106.39 49.55ZM106.94 48.42L106.94 49.61C106.94 49.7 106.97 49.75 107.04 49.75C107.11 49.75 107.21 49.7 107.36 49.6L107.36 49.94C107.23 50.02 107.13 50.08 107.05 50.11C106.97 50.14 106.9 50.15 106.81 50.15C106.57 50.15 106.43 50.06 106.39 49.87C106.15 50.06 105.9 50.15 105.63 50.15C105.43 50.15 105.27 50.08 105.14 49.96C105.01 49.83 104.94 49.66 104.94 49.47C104.94 49.29 105.01 49.14 105.13 49C105.26 48.86 105.44 48.75 105.68 48.67L106.39 48.42L106.39 48.27C106.39 47.93 106.22 47.76 105.88 47.76C105.58 47.76 105.28 47.92 105 48.23L105 47.63C105.21 47.38 105.52 47.25 105.93 47.25C106.23 47.25 106.48 47.33 106.66 47.49C106.72 47.54 106.78 47.6 106.83 47.69C106.88 47.77 106.91 47.86 106.92 47.94C106.93 48.03 106.94 48.18 106.94 48.42L106.94 48.42ZM108.39 47.31L108.39 47.65C108.64 47.38 108.92 47.25 109.24 47.25C109.41 47.25 109.58 47.29 109.73 47.39C109.88 47.48 109.99 47.6 110.07 47.76C110.15 47.91 110.19 48.16 110.19 48.51L110.19 50.11L109.63 50.11L109.63 48.51C109.63 48.22 109.59 48.02 109.5 47.89C109.42 47.77 109.27 47.71 109.06 47.71C108.8 47.71 108.57 47.84 108.39 48.1L108.39 50.11L107.82 50.11L107.82 47.31L108.39 47.31ZM112.57 47.31L113.19 47.31L111.21 51.54L110.58 51.54L111.53 49.52L110.45 47.31L111.08 47.31L111.84 48.89L112.57 47.31ZM115.36 48.97L115.12 48.97L115.12 47.39L115.51 47.39L115.92 48.66L116.31 47.39L116.69 47.39L116.69 48.97L116.44 48.97L116.44 47.64L116.04 48.97L115.8 48.97L115.36 47.62L115.36 48.97ZM114.42 48.97L114.15 48.97L114.15 47.61L113.63 47.61L113.63 47.39L114.94 47.39L114.94 47.61L114.42 47.61L114.42 48.97Z" fill="#1D2329" fill-opacity="1.000000" fill-rule="nonzero"/>
	</g>
</svg>
