<svg width="76.000000" height="50.000000" viewBox="0 0 76 50" fill="none" xmlns="http://www.w3.org/2000/svg" xmlns:xlink="http://www.w3.org/1999/xlink">
	<desc>
			Created with Pixso.
	</desc>
	<defs>
		<clipPath id="clip1_802">
			<rect id="Frame" width="76.000000" height="50.000000" fill="white" fill-opacity="0"/>
		</clipPath>
	</defs>
	<g clip-path="url(#clip1_802)">
		<path id="path4423" d="M22.49 21.24L22.49 33.36L18.61 33.36L18.61 18.13L26.62 18.14C30.02 18.14 31.18 20.52 31.18 22.69L31.18 33.36L27.31 33.36L27.31 22.71C27.31 21.8 26.84 21.24 25.7 21.24L22.49 21.24L22.49 21.24ZM48.88 21.06C47.55 21.06 46.53 21.74 46.1 22.66C45.84 23.21 45.76 23.63 45.73 24.31L51.7 24.31C51.62 22.66 50.87 21.06 48.88 21.06ZM45.73 26.94C45.73 28.91 46.96 30.36 49.16 30.36C50.88 30.36 51.73 29.89 52.72 28.91L55.12 31.19C53.58 32.69 51.97 33.61 49.13 33.61C45.42 33.61 41.86 31.59 41.86 25.72C41.86 20.71 44.97 17.87 49.05 17.87C53.18 17.87 55.57 21.19 55.57 25.55L55.57 26.94L45.73 26.94ZM38.59 33.34C35.43 33.34 34.09 31.16 34.09 28.99L34.09 13.98L37.96 13.98L37.96 18.13L40.88 18.13L40.88 21.24L37.96 21.24L37.96 28.75C37.96 29.64 38.38 30.13 39.3 30.13L40.88 30.13L40.88 33.34L38.59 33.34ZM15.16 16.02L11.25 16.02L11.25 12.33L15.16 12.33L15.16 16.02ZM15.17 33.52C12.24 33.24 11.25 31.48 11.25 29.44L11.25 18.13L15.17 18.13L15.17 33.52L15.17 33.52ZM61.74 33.2C58.82 32.92 57.83 31.16 57.83 29.12L57.83 11.81L61.74 11.81L61.74 33.2ZM75.41 14.31C71.86 -2.87 38.32 -3.96 16.7 9.13L16.7 10.57C38.3 -0.46 68.93 -0.4 71.72 15.42C72.66 20.66 69.69 26.11 64.39 29.25L64.39 33.35C70.77 31.03 77.31 23.51 75.41 14.31ZM36.11 44.37C21.19 45.74 5.64 43.58 3.47 31.99C2.4 26.28 5.02 20.22 8.49 16.46L8.49 14.44C2.24 19.9 -1.15 26.8 0.8 34.95C3.29 45.41 16.64 51.34 37.01 49.37C45.06 48.59 55.61 46.01 62.94 42.01L62.94 36.32C56.29 40.26 45.28 43.52 36.11 44.37Z" fill="#0071C5" fill-opacity="1.000000" fill-rule="nonzero"/>
		<path id="path4425" d="M66.26 12.96C66.26 12.77 66.15 12.71 65.89 12.71L65.65 12.71L65.65 13.24C65.68 13.24 65.86 13.25 65.89 13.25C66.15 13.25 66.26 13.16 66.26 12.99L66.26 12.96L66.26 12.96ZM66.64 14.28L66.35 14.28C66.32 14.28 66.3 14.26 66.29 14.24L65.89 13.57C65.89 13.56 65.85 13.55 65.84 13.55L65.66 13.55L65.66 14.21C65.66 14.24 65.64 14.28 65.59 14.28L65.33 14.28C65.3 14.28 65.26 14.24 65.26 14.21L65.26 12.54C65.26 12.44 65.3 12.4 65.38 12.39C65.48 12.37 65.73 12.37 65.86 12.37C66.34 12.37 66.63 12.51 66.63 12.96L66.63 12.99C66.63 13.27 66.5 13.41 66.28 13.48L66.69 14.17C66.69 14.19 66.7 14.21 66.7 14.22C66.7 14.25 66.68 14.28 66.64 14.28L66.64 14.28ZM65.95 12.06C65.24 12.06 64.66 12.65 64.66 13.35C64.66 14.06 65.24 14.63 65.95 14.63C66.66 14.63 67.24 14.06 67.24 13.35C67.24 12.65 66.66 12.06 65.95 12.06ZM65.95 14.9C65.08 14.9 64.39 14.21 64.39 13.35C64.39 12.5 65.08 11.81 65.95 11.81C66.81 11.81 67.51 12.5 67.51 13.35C67.51 14.21 66.81 14.9 65.95 14.9Z" fill="#0071C5" fill-opacity="1.000000" fill-rule="nonzero"/>
	</g>
</svg>
