<svg width="138.000000" height="17.000000" viewBox="0 0 138 17" fill="none" xmlns="http://www.w3.org/2000/svg" xmlns:xlink="http://www.w3.org/1999/xlink">
	<desc>
			Created with Pixso.
	</desc>
	<defs>
		<clipPath id="clip1_807">
			<rect id="Frame" width="105.000000" height="15.000000" transform="translate(17.000000 1.000000)" fill="white" fill-opacity="0"/>
		</clipPath>
	</defs>
	<g clip-path="url(#clip1_807)">
		<path id="Vector" d="M116.1 1.1C116.1 1.1 116.74 1.1 117.01 1.3C117.01 1.3 117.28 1.5 117.48 2.11L121.96 15.41C121.96 15.41 122.03 15.58 121.98 15.72C121.98 15.72 121.92 15.86 121.7 15.86L119.8 15.86C119.8 15.86 119.57 15.86 119.44 15.8C119.44 15.8 119.3 15.75 119.22 15.52L118.31 12.64L113.07 12.64L112.16 15.5C112.16 15.5 112.09 15.69 111.98 15.77C111.98 15.77 111.87 15.86 111.62 15.86L109.72 15.86C109.72 15.86 109.49 15.86 109.43 15.72C109.43 15.72 109.37 15.58 109.43 15.41L113.89 2.11C113.89 2.11 113.99 1.8 114.1 1.61C114.1 1.61 114.2 1.42 114.36 1.31C114.36 1.31 114.51 1.21 114.72 1.16C114.72 1.16 114.92 1.1 115.21 1.1L116.1 1.1ZM115.71 3.94L115.61 3.94L114.76 6.86L113.69 10.45L117.65 10.45L116.58 6.92L115.71 3.94Z" fill="#000000" fill-opacity="1.000000" fill-rule="nonzero"/>
		<path id="Vector" d="M73.46 1.14C73.46 1.14 73.75 1.14 73.85 1.22C73.85 1.22 73.96 1.29 73.96 1.58L73.96 7.03L80.38 7.03L80.38 1.58C80.38 1.58 80.38 1.31 80.49 1.23C80.49 1.23 80.61 1.14 80.86 1.14L82.43 1.14C82.43 1.14 82.72 1.14 82.81 1.22C82.81 1.22 82.9 1.29 82.9 1.58L82.9 15.41C82.9 15.41 82.9 15.71 82.81 15.78C82.81 15.78 82.72 15.86 82.43 15.86L80.86 15.86C80.86 15.86 80.61 15.86 80.49 15.77C80.49 15.77 80.38 15.69 80.38 15.41L80.38 9.24L73.96 9.24L73.96 15.41C73.96 15.41 73.96 15.71 73.85 15.78C73.85 15.78 73.75 15.86 73.46 15.86L71.89 15.86C71.89 15.86 71.67 15.86 71.54 15.77C71.54 15.77 71.42 15.69 71.42 15.41L71.42 1.58C71.42 1.58 71.42 1.31 71.54 1.23C71.54 1.23 71.67 1.14 71.89 1.14L73.46 1.14Z" fill="#000000" fill-opacity="1.000000" fill-rule="nonzero"/>
		<path id="Vector" d="M67.17 1.14C67.17 1.14 67.4 1.14 67.47 1.23C67.47 1.23 67.54 1.31 67.54 1.54L67.54 3C67.54 3 67.54 3.21 67.47 3.29C67.47 3.29 67.4 3.38 67.17 3.38L63.25 3.38L63.25 15.41C63.25 15.41 63.25 15.71 63.16 15.78C63.16 15.78 63.06 15.86 62.77 15.86L61.16 15.86C61.16 15.86 60.91 15.86 60.8 15.77C60.8 15.77 60.68 15.69 60.68 15.41L60.68 3.38L56.84 3.38C56.84 3.38 56.62 3.38 56.55 3.29C56.55 3.29 56.49 3.21 56.49 3L56.49 1.54C56.49 1.54 56.49 1.31 56.55 1.23C56.55 1.23 56.62 1.14 56.84 1.14L67.17 1.14Z" fill="#000000" fill-opacity="1.000000" fill-rule="nonzero"/>
		<path id="Vector" d="M41.02 1.06C45.05 1.06 48.31 4.38 48.31 8.48C48.31 12.58 45.05 15.91 41.02 15.91L24.93 15.91C24.35 15.91 23.89 15.44 23.89 14.85C23.89 14.27 24.35 13.79 24.93 13.79L28.68 13.79C29.25 13.79 29.72 13.32 29.72 12.73C29.72 12.15 29.25 11.67 28.68 11.67L27.84 11.67C27.27 11.67 26.8 11.2 26.8 10.61C26.8 10.03 27.27 9.55 27.84 9.55L30.34 9.55C30.92 9.55 31.37 9.07 31.38 8.49C31.38 7.91 30.92 7.43 30.34 7.43L21.59 7.43C21.02 7.43 20.55 6.96 20.55 6.37C20.55 5.79 21.02 5.31 21.59 5.31L28.05 5.31C28.63 5.31 29.08 4.83 29.09 4.25C29.09 3.67 28.63 3.19 28.05 3.19L26.59 3.19C26.02 3.19 25.55 2.72 25.55 2.13C25.55 1.55 26.02 1.04 26.59 1.04L41.02 1.06ZM39.85 3.53C37.61 3.53 35.8 5.38 35.8 7.66L35.8 9.31C35.8 11.59 37.61 13.43 39.85 13.43C42.09 13.43 43.9 11.59 43.9 9.31L43.9 7.66C43.9 5.38 42.09 3.53 39.85 3.53ZM41.23 7.43C41.77 7.43 42.21 7.88 42.21 8.43L42.21 8.56C42.21 9.11 41.77 9.55 41.23 9.55L38.19 9.55C37.65 9.55 37.21 9.11 37.21 8.56L37.21 8.43C37.21 7.88 37.65 7.43 38.19 7.43L41.23 7.43Z" fill="#000000" fill-opacity="1.000000" fill-rule="nonzero"/>
		<path id="Vector" d="M21.66 13.79C22.2 13.79 22.64 14.24 22.64 14.79L22.64 14.92C22.64 15.47 22.2 15.91 21.66 15.91L18.06 15.91C17.52 15.91 17.08 15.47 17.08 14.92L17.08 14.79C17.08 14.24 17.52 13.79 18.06 13.79L21.66 13.79Z" fill="#000000" fill-opacity="1.000000" fill-rule="nonzero"/>
		<path id="Vector" d="M97.5 1.13C97.5 1.13 97.77 1.13 97.84 1.25C97.84 1.25 97.91 1.36 97.91 1.61L97.91 2.94C97.91 2.94 97.91 3.21 97.84 3.31C97.84 3.31 97.77 3.4 97.5 3.4L92.01 3.4C92.01 3.4 91.22 3.4 90.9 3.76C90.9 3.76 90.58 4.12 90.58 4.79L90.58 6.99L96.82 6.99C96.82 6.99 97.09 6.99 97.16 7.1C97.16 7.1 97.23 7.2 97.23 7.5L97.23 8.65C97.23 8.65 97.23 8.9 97.16 9.02C97.16 9.02 97.09 9.13 96.82 9.13L90.58 9.13L90.58 12.2C90.58 12.2 90.58 12.88 90.92 13.22C90.92 13.22 91.27 13.57 92.01 13.57L97.62 13.57C97.62 13.57 97.91 13.57 97.99 13.68C97.99 13.68 98.06 13.78 98.06 14.07L98.06 15.37C98.06 15.37 98.06 15.6 97.97 15.73C97.97 15.73 97.89 15.86 97.62 15.86L91.74 15.86C91.74 15.86 90.64 15.86 89.94 15.54C89.94 15.54 89.24 15.23 88.81 14.7C88.81 14.7 88.39 14.18 88.23 13.5C88.23 13.5 88.06 12.83 88.06 12.1L88.06 4.91C88.06 4.91 88.06 4.18 88.26 3.49C88.26 3.49 88.45 2.81 88.9 2.29C88.9 2.29 89.34 1.76 90.04 1.44C90.04 1.44 90.75 1.13 91.74 1.13L97.5 1.13Z" fill="#000000" fill-opacity="1.000000" fill-rule="nonzero"/>
		<path id="Vector" d="M104.76 1.14C104.76 1.14 105.05 1.14 105.16 1.22C105.16 1.22 105.26 1.29 105.26 1.58L105.26 15.41C105.26 15.41 105.26 15.71 105.16 15.78C105.16 15.78 105.05 15.86 104.76 15.86L103.2 15.86C103.2 15.86 102.95 15.86 102.84 15.77C102.84 15.77 102.72 15.69 102.72 15.41L102.72 1.58C102.72 1.58 102.72 1.31 102.84 1.23C102.84 1.23 102.95 1.14 103.2 1.14L104.76 1.14Z" fill="#000000" fill-opacity="1.000000" fill-rule="nonzero"/>
		<path id="Vector" d="M23.33 1.07C23.87 1.07 24.3 1.52 24.3 2.07L24.3 2.2C24.3 2.75 23.87 3.19 23.33 3.19L19.3 3.19C18.76 3.19 18.33 2.75 18.33 2.2L18.33 2.07C18.33 1.52 18.76 1.07 19.3 1.07L23.33 1.07Z" fill="#000000" fill-opacity="1.000000" fill-rule="nonzero"/>
		<path id="Vector" d="M24.57 9.55C25.11 9.55 25.55 10 25.55 10.55L25.55 10.68C25.55 11.23 25.11 11.67 24.57 11.67L22.37 11.67C21.83 11.67 21.39 11.23 21.39 10.68L21.39 10.55C21.39 10 21.83 9.55 22.37 9.55L24.57 9.55Z" fill="#000000" fill-opacity="1.000000" fill-rule="nonzero"/>
	</g>
</svg>
