<svg width="138.000000" height="37.000000" viewBox="0 0 138 37" fill="none" xmlns="http://www.w3.org/2000/svg" xmlns:xlink="http://www.w3.org/1999/xlink">
	<desc>
			Created with Pixso.
	</desc>
	<defs>
		<clipPath id="clip1_788">
			<rect id="Frame" width="95.000000" height="33.000000" transform="translate(21.000000 2.000000)" fill="white" fill-opacity="0"/>
		</clipPath>
	</defs>
	<g clip-path="url(#clip1_788)">
		<path id="Vector" d="M26.46 25.56C26.86 26.63 27.42 27.54 28.13 28.3C28.84 29.05 29.68 29.63 30.65 30.04C31.63 30.44 32.68 30.64 33.83 30.64C34.94 30.64 35.98 30.43 36.95 30.01C37.92 29.6 38.77 29.01 39.5 28.25C40.23 27.49 40.79 26.59 41.19 25.54C41.59 24.49 41.79 23.32 41.79 22.02L41.79 2L46.66 2L46.66 34.44L41.84 34.44L41.84 31.43C40.76 32.57 39.48 33.45 38.02 34.07C36.55 34.69 34.97 35 33.27 35C31.54 35 29.93 34.69 28.43 34.09C26.93 33.49 25.63 32.63 24.54 31.52C23.44 30.41 22.58 29.07 21.94 27.51C21.31 25.95 21 24.21 21 22.3L21 2L25.86 2L25.86 22.02C25.86 23.32 26.06 24.5 26.46 25.56ZM55.04 2L55.04 13.81C56.12 12.73 57.37 11.87 58.79 11.24C60.21 10.61 61.76 10.29 63.42 10.29C65.15 10.29 66.77 10.62 68.29 11.26C69.8 11.91 71.11 12.79 72.22 13.91C73.34 15.02 74.22 16.33 74.86 17.85C75.51 19.36 75.84 20.97 75.84 22.67C75.84 24.37 75.51 25.96 74.86 27.46C74.22 28.96 73.34 30.27 72.22 31.38C71.11 32.49 69.8 33.37 68.29 34.02C66.77 34.67 65.15 35 63.42 35C61.76 35 60.2 34.68 58.77 34.04C57.33 33.41 56.07 32.55 54.99 31.47L54.99 34.44L50.36 34.44L50.36 2L55.04 2ZM55.57 25.86C55.99 26.85 56.57 27.72 57.31 28.46C58.05 29.2 58.91 29.79 59.9 30.22C60.89 30.65 61.96 30.87 63.1 30.87C64.21 30.87 65.26 30.65 66.25 30.22C67.24 29.79 68.09 29.2 68.82 28.46C69.55 27.72 70.12 26.85 70.56 25.86C70.99 24.88 71.2 23.81 71.2 22.67C71.2 21.52 70.99 20.45 70.56 19.45C70.12 18.44 69.55 17.57 68.82 16.83C68.09 16.08 67.24 15.51 66.25 15.09C65.26 14.67 64.21 14.46 63.1 14.46C61.99 14.46 60.94 14.67 59.95 15.09C58.96 15.51 58.1 16.08 57.36 16.83C56.61 17.57 56.03 18.44 55.6 19.45C55.16 20.45 54.95 21.52 54.95 22.67C54.95 23.81 55.16 24.88 55.57 25.86ZM78.48 17.89C79.09 16.41 79.94 15.1 81.02 13.98C82.1 12.85 83.39 11.96 84.87 11.31C86.35 10.66 87.96 10.34 89.69 10.34C91.38 10.34 92.96 10.65 94.41 11.27C95.86 11.88 97.11 12.74 98.16 13.84C99.21 14.93 100.03 16.23 100.62 17.73C101.2 19.23 101.5 20.86 101.5 22.62L101.5 24.15L82.27 24.15C82.43 25.11 82.74 26 83.2 26.81C83.66 27.63 84.24 28.34 84.94 28.95C85.63 29.55 86.42 30.02 87.3 30.36C88.18 30.7 89.11 30.87 90.1 30.87C92.91 30.87 95.18 29.71 96.91 27.39L100.29 29.9C99.12 31.47 97.67 32.71 95.94 33.6C94.21 34.5 92.26 34.95 90.1 34.95C88.34 34.95 86.7 34.64 85.17 34.02C83.64 33.4 82.31 32.54 81.19 31.43C80.06 30.31 79.17 29.01 78.52 27.51C77.87 26.01 77.55 24.38 77.55 22.62C77.55 20.95 77.86 19.38 78.48 17.89ZM84.98 16.06C83.67 17.16 82.8 18.62 82.37 20.44L96.77 20.44C96.37 18.62 95.51 17.16 94.2 16.06C92.89 14.96 91.35 14.42 89.59 14.42C87.83 14.42 86.3 14.96 84.98 16.06ZM110.25 16.59C109.26 17.68 108.77 19.14 108.77 21L108.77 34.44L104.09 34.44L104.09 10.8L108.72 10.8L108.72 13.72C109.31 12.76 110.07 12.01 111.02 11.45C111.96 10.89 113.08 10.62 114.37 10.62L116 10.62L116 14.97L114.05 14.97C112.51 14.97 111.24 15.51 110.25 16.59Z" fill="#010202" fill-opacity="1.000000" fill-rule="nonzero"/>
	</g>
</svg>
