<svg width="95.000000" height="42.000000" viewBox="0 0 95 42" fill="none" xmlns="http://www.w3.org/2000/svg" xmlns:xlink="http://www.w3.org/1999/xlink">
	<desc>
			Created with Pixso.
	</desc>
	<defs>
		<clipPath id="clip1_730">
			<rect id="Frame" width="95.000000" height="42.000000" fill="white" fill-opacity="0"/>
		</clipPath>
	</defs>
	<g clip-path="url(#clip1_730)">
		<path id="Vector" d="M34.63 22.36L33.27 18.18C33.27 18.18 33.27 18.18 33.27 18.19C33.27 18.18 33.27 18.18 33.27 18.18L33.27 18.18L33.27 18.18L30.58 9.89C30.44 9.45 30.03 9.16 29.57 9.17C29.1 9.17 28.71 9.45 28.56 9.9L26.01 17.76L17.96 17.76L15.4 9.9C15.26 9.45 14.87 9.17 14.4 9.17L14.4 9.17C13.94 9.17 13.53 9.46 13.38 9.9L10.7 18.18L10.7 18.18L10.7 18.18C10.7 18.18 10.7 18.18 10.7 18.19C10.7 18.18 10.7 18.18 10.7 18.18L9.34 22.36C9.24 22.66 9.24 22.99 9.34 23.3C9.44 23.61 9.63 23.87 9.89 24.06L21.63 32.6C21.63 32.6 21.64 32.6 21.64 32.6C21.64 32.61 21.65 32.61 21.65 32.61C21.65 32.61 21.64 32.61 21.64 32.6L21.64 32.6C21.64 32.6 21.64 32.6 21.64 32.61L21.64 32.61L21.64 32.61C21.66 32.62 21.68 32.63 21.7 32.64C21.7 32.64 21.7 32.64 21.71 32.65L21.71 32.65C21.71 32.65 21.71 32.65 21.71 32.65C21.71 32.65 21.71 32.65 21.72 32.65C21.72 32.65 21.72 32.65 21.72 32.65C21.72 32.65 21.72 32.65 21.73 32.65C21.74 32.66 21.75 32.66 21.76 32.67C21.77 32.67 21.78 32.68 21.79 32.68L21.79 32.68C21.79 32.68 21.79 32.68 21.79 32.68C21.79 32.68 21.8 32.68 21.8 32.68L21.8 32.69C21.8 32.69 21.81 32.69 21.81 32.69L21.81 32.69C21.83 32.69 21.84 32.7 21.86 32.7C21.86 32.7 21.87 32.7 21.87 32.7L21.87 32.7C21.88 32.7 21.88 32.7 21.88 32.71C21.88 32.71 21.89 32.71 21.89 32.71C21.89 32.71 21.89 32.71 21.9 32.71L21.9 32.71L21.9 32.71C21.93 32.71 21.95 32.71 21.98 32.71L21.98 32.71C22.01 32.71 22.04 32.71 22.07 32.71L22.07 32.71L22.07 32.71C22.07 32.71 22.08 32.71 22.08 32.71C22.08 32.71 22.08 32.71 22.09 32.71C22.09 32.7 22.09 32.7 22.09 32.7L22.09 32.7C22.1 32.7 22.11 32.7 22.11 32.7C22.13 32.7 22.14 32.69 22.16 32.69L22.16 32.69C22.16 32.69 22.16 32.69 22.17 32.69C22.17 32.69 22.17 32.68 22.17 32.68C22.17 32.68 22.17 32.68 22.18 32.68C22.18 32.68 22.18 32.68 22.18 32.68L22.18 32.68C22.19 32.68 22.2 32.67 22.21 32.67C22.22 32.66 22.23 32.66 22.24 32.65C22.24 32.65 22.25 32.65 22.25 32.65L22.25 32.65C22.25 32.65 22.25 32.65 22.26 32.65C22.26 32.65 22.26 32.65 22.26 32.65L22.26 32.65C22.26 32.64 22.27 32.64 22.27 32.64C22.29 32.63 22.31 32.62 22.32 32.61C22.33 32.61 22.33 32.6 22.33 32.6L22.33 32.6C22.33 32.6 22.33 32.6 22.34 32.6L34.07 24.06C34.33 23.87 34.53 23.61 34.63 23.3C34.73 22.99 34.73 22.66 34.63 22.36ZM29.57 10.67L31.88 17.76L27.27 17.76L29.57 10.67ZM31.47 18.96L30.53 20.17L23.61 29.06L26.88 18.96L31.47 18.96L31.47 18.96ZM21.41 32.3C21.41 32.3 21.42 32.3 21.42 32.31C21.42 32.3 21.41 32.3 21.41 32.3ZM20.36 29.06L12.5 18.96L17.09 18.96L20.36 29.06ZM14.39 10.67L16.7 17.76L12.1 17.76L14.39 10.67ZM10.6 23.09C10.54 23.05 10.5 22.99 10.48 22.93C10.46 22.86 10.46 22.79 10.48 22.73L11.49 19.62L18.9 29.13L10.6 23.09ZM21.61 32.58C21.61 32.58 21.61 32.58 21.6 32.58L21.6 32.58C21.6 32.57 21.59 32.57 21.59 32.57C21.58 32.56 21.57 32.55 21.56 32.54L21.57 32.54L21.57 32.55C21.59 32.56 21.6 32.58 21.62 32.59L21.62 32.59C21.62 32.59 21.63 32.59 21.63 32.6C21.62 32.59 21.62 32.59 21.61 32.58ZM21.98 30.17L20.06 24.23L18.35 18.96L25.62 18.96L21.98 30.17ZM22.38 32.57C22.37 32.57 22.37 32.57 22.36 32.58L22.36 32.58C22.36 32.58 22.36 32.58 22.36 32.58C22.35 32.59 22.35 32.59 22.34 32.6C22.34 32.59 22.34 32.59 22.34 32.59L22.34 32.59C22.36 32.58 22.38 32.56 22.4 32.55C22.4 32.55 22.4 32.55 22.4 32.54C22.4 32.54 22.4 32.54 22.4 32.54C22.39 32.55 22.39 32.56 22.38 32.57ZM33.37 23.09L25.07 29.12L32.48 19.62L33.49 22.73C33.51 22.79 33.51 22.86 33.49 22.93C33.47 22.99 33.42 23.05 33.37 23.09Z" fill="#231F20" fill-opacity="1.000000" fill-rule="nonzero"/>
		<path id="path14 9" d="M63.01 14.89L61.37 14.89L61.38 27.1L68 27.1L68 25.59L63.01 25.59L63.01 14.89Z" fill="#231F20" fill-opacity="1.000000" fill-rule="nonzero"/>
		<path id="path26 9" d="M74.31 24.95C73.9 25.38 73.21 25.81 72.28 25.81C71.04 25.81 70.53 25.19 70.53 24.39C70.53 23.18 71.37 22.6 73.16 22.6C73.5 22.6 74.04 22.64 74.32 22.69L74.32 24.95L74.31 24.95ZM72.61 17.55C71.29 17.55 70.08 18.02 69.13 18.81L69.71 19.81C70.38 19.42 71.19 19.03 72.37 19.03C73.72 19.03 74.31 19.72 74.31 20.88L74.31 21.47C74.05 21.42 73.51 21.38 73.18 21.38C70.31 21.38 68.85 22.39 68.85 24.49C68.85 26.38 70.01 27.33 71.76 27.33C72.94 27.33 74.07 26.79 74.46 25.91L74.76 27.1L75.91 27.1L75.91 20.85C75.91 18.87 75.05 17.55 72.61 17.55Z" fill="#231F20" fill-opacity="1.000000" fill-rule="nonzero"/>
		<path id="path30 9" d="M81.19 25.87C80.58 25.87 80.04 25.79 79.63 25.6L79.63 19.96C80.19 19.49 80.88 19.16 81.76 19.16C83.34 19.16 83.95 20.28 83.95 22.09C83.95 24.66 82.96 25.87 81.19 25.87ZM81.88 17.56C80.42 17.56 79.63 18.55 79.63 18.55L79.63 16.98L79.62 14.89L78.03 14.89L78.03 26.8C78.84 27.14 79.93 27.32 81.13 27.32C84.18 27.32 85.65 25.36 85.65 21.99C85.64 19.32 84.28 17.56 81.88 17.56Z" fill="#231F20" fill-opacity="1.000000" fill-rule="nonzero"/>
		<path id="path34 9" d="M45.19 16.21C46.64 16.21 47.58 16.69 48.19 17.18L48.89 15.96C47.94 15.11 46.65 14.66 45.27 14.66C41.79 14.66 39.35 16.79 39.35 21.08C39.35 25.57 41.98 27.32 44.99 27.32C46.5 27.32 47.78 26.97 48.62 26.62L48.59 21.82L48.59 20.31L44.12 20.31L44.12 21.82L46.97 21.82L47.01 25.46C46.64 25.65 45.99 25.8 45.11 25.8C42.7 25.8 41.07 24.27 41.07 21.06C41.07 17.8 42.74 16.21 45.19 16.21Z" fill="#231F20" fill-opacity="1.000000" fill-rule="nonzero"/>
		<path id="path38 9" d="M56.72 14.88L55.12 14.88L55.12 16.94L55.12 24.02C55.12 26 55.98 27.32 58.42 27.32C58.76 27.32 59.09 27.29 59.4 27.23L59.4 25.79C59.17 25.83 58.92 25.85 58.66 25.85C57.32 25.85 56.72 25.16 56.72 24L56.72 19.11L59.4 19.11L59.4 17.78L56.72 17.78L56.72 14.88Z" fill="#231F20" fill-opacity="1.000000" fill-rule="nonzero"/>
		<path id="path40 28" d="M51.05 27.1L52.65 27.1L52.65 17.78L51.05 17.78L51.05 27.1Z" fill="#231F20" fill-opacity="1.000000" fill-rule="nonzero"/>
		<path id="path42 9" d="M51.05 16.49L52.65 16.49L52.65 14.89L51.05 14.89L51.05 16.49Z" fill="#231F20" fill-opacity="1.000000" fill-rule="nonzero"/>
	</g>
</svg>
