<svg width="138.000000" height="46.000000" viewBox="0 0 138 46" fill="none" xmlns="http://www.w3.org/2000/svg" xmlns:xlink="http://www.w3.org/1999/xlink">
	<desc>
			Created with Pixso.
	</desc>
	<defs>
		<clipPath id="clip1_820">
			<rect id="Frame" width="95.000000" height="42.000000" transform="translate(21.000000 2.000000)" fill="white" fill-opacity="0"/>
		</clipPath>
	</defs>
	<g clip-path="url(#clip1_820)">
		<path id="Vector" d="M37.4 16.4C36.8 15.27 36.08 14.47 35.16 13.9C34.24 13.34 33.16 13.06 31.92 13.06C30.28 13.06 28.88 13.66 27.76 14.87C26.64 16.08 26.08 17.6 26.08 19.41C26.08 21.23 26.64 22.71 27.8 23.92C28.96 25.13 30.36 25.69 32.12 25.69C33.44 25.69 34.56 25.41 35.44 24.85C36.32 24.28 37 23.4 37.4 22.27L42.6 22.27C41.96 24.89 40.72 26.9 38.88 28.39C37.04 29.87 34.8 30.6 32.12 30.6C30.56 30.6 29.12 30.32 27.8 29.75C26.48 29.19 25.28 28.39 24.2 27.26C23.2 26.21 22.44 25.05 21.88 23.64C21.28 22.31 21 20.9 21 19.5C21 18.01 21.24 16.6 21.76 15.31C22.28 14.02 23.04 12.86 24.04 11.81C25.16 10.64 26.36 9.76 27.76 9.16C29.12 8.55 30.64 8.23 32.2 8.23C34.76 8.23 37 8.95 38.92 10.44C40.8 11.93 42.04 13.9 42.64 16.4L37.4 16.4ZM86.34 10.56L86.34 2L91.18 2L91.18 30.08L86.34 30.08L86.34 28.35C85.38 29.11 84.34 29.67 83.3 30.08C82.22 30.44 81.06 30.64 79.82 30.64C78.5 30.64 77.26 30.44 76.06 30C74.9 29.55 73.82 28.95 72.9 28.14C71.62 27.02 70.66 25.73 69.98 24.2C69.3 22.67 68.94 21.1 68.94 19.41C68.94 17.85 69.26 16.36 69.9 14.91C70.54 13.46 71.42 12.21 72.58 11.17C73.54 10.24 74.62 9.56 75.86 9.08C77.1 8.59 78.42 8.35 79.82 8.35C81.18 8.35 82.38 8.51 83.42 8.87C84.42 9.24 85.42 9.8 86.34 10.56ZM86.14 19.54C86.14 17.73 85.58 16.2 84.42 14.99C83.26 13.78 81.86 13.18 80.14 13.18C78.46 13.18 77.02 13.78 75.82 15.03C74.62 16.28 74.02 17.73 74.02 19.45C74.02 21.23 74.62 22.71 75.82 23.92C77.02 25.13 78.54 25.69 80.38 25.69C81.98 25.69 83.34 25.09 84.46 23.88C85.54 22.75 86.14 21.27 86.14 19.54ZM99.07 21.02C99.23 22.55 99.83 23.76 100.87 24.64C101.91 25.53 103.27 25.97 104.91 25.97C106.03 25.97 106.99 25.73 107.87 25.29C108.75 24.81 109.43 24.16 109.95 23.36L115.24 23.36C114.35 25.65 112.99 27.46 111.23 28.75C109.43 30.04 107.39 30.68 105.03 30.68C103.47 30.68 102.03 30.4 100.71 29.83C99.39 29.27 98.19 28.47 97.15 27.34C96.15 26.29 95.39 25.09 94.83 23.72C94.27 22.35 93.99 20.94 93.99 19.54C93.99 18.05 94.23 16.68 94.75 15.35C95.27 14.06 95.99 12.86 96.99 11.85C98.07 10.73 99.27 9.84 100.63 9.2C101.99 8.59 103.39 8.27 104.83 8.27C106.67 8.27 108.35 8.67 109.95 9.52C111.55 10.36 112.87 11.53 113.99 13.06C114.67 13.98 115.16 14.99 115.52 16.12C115.84 17.24 116 18.53 116 20.02C116 20.14 116 20.3 116 20.54C116 20.78 116 20.94 116 21.06L99.07 21.02ZM110.67 17.12C110.27 15.71 109.55 14.63 108.55 13.9C107.55 13.18 106.31 12.78 104.79 12.78C103.51 12.78 102.31 13.18 101.27 13.98C100.23 14.79 99.55 15.83 99.19 17.12L110.67 17.12Z" fill="#4A4A4F" fill-opacity="1.000000" fill-rule="nonzero"/>
		<path id="Vector" d="M44.77 19.37C44.77 17.89 45.05 16.48 45.57 15.11C46.13 13.78 46.89 12.58 47.93 11.53C48.97 10.44 50.17 9.64 51.53 9.08C52.85 8.51 54.25 8.23 55.69 8.23C57.21 8.23 58.61 8.47 59.89 8.99C61.17 9.52 62.37 10.24 63.45 11.29C64.57 12.37 65.41 13.58 66.01 14.99C66.61 16.4 66.93 17.81 66.93 19.29C66.93 20.9 66.69 22.39 66.13 23.72C65.61 25.05 64.81 26.25 63.77 27.34C62.73 28.43 61.53 29.27 60.17 29.83C58.81 30.4 57.37 30.68 55.81 30.68C54.21 30.68 52.77 30.4 51.49 29.83C50.17 29.27 49.01 28.43 47.93 27.3C46.89 26.17 46.13 24.97 45.61 23.64C45.01 22.23 44.77 20.86 44.77 19.37ZM49.81 19.33C49.81 21.31 50.33 22.87 51.41 24C52.49 25.17 53.97 25.73 55.81 25.73C57.61 25.73 59.05 25.13 60.13 23.96C61.21 22.79 61.73 21.22 61.73 19.21C61.73 17.44 61.17 15.95 60.05 14.83C58.93 13.7 57.49 13.1 55.81 13.1C54.05 13.1 52.61 13.66 51.49 14.83C50.37 15.99 49.81 17.48 49.81 19.33ZM68.9 35.71L68.9 34.66L69.94 34.66L69.94 35.71L68.9 35.71ZM68.94 43.91L68.94 37.52L69.86 37.52L69.86 43.91L68.94 43.91ZM76.54 43.91L76.54 39.97C76.54 38.85 75.94 38.28 74.98 38.28C74.02 38.28 73.42 38.85 73.42 39.97L73.42 43.91L72.5 43.91L72.5 37.52L73.42 37.52L73.42 38.2C73.86 37.68 74.5 37.44 75.22 37.44C75.9 37.44 76.46 37.64 76.86 38.04C77.3 38.48 77.5 39.09 77.5 39.81L77.5 43.91L76.54 43.91ZM81.98 43.99C80.9 43.99 80.06 43.75 79.38 43.07L80.02 42.43C80.54 42.95 81.22 43.15 81.98 43.15C83.02 43.15 83.66 42.79 83.66 42.02C83.66 41.46 83.34 41.14 82.62 41.1L81.58 41.02C80.34 40.9 79.66 40.37 79.66 39.29C79.66 38.12 80.62 37.44 81.98 37.44C82.9 37.44 83.7 37.68 84.26 38.12L83.66 38.72C83.22 38.36 82.62 38.2 81.98 38.2C81.06 38.2 80.54 38.6 80.54 39.25C80.54 39.81 80.86 40.13 81.66 40.17L82.7 40.25C83.82 40.37 84.58 40.78 84.58 41.98C84.58 43.27 83.54 43.99 81.98 43.99ZM88.3 43.91C87.22 43.91 86.66 43.15 86.66 42.18L86.66 38.24L85.86 38.24L85.86 37.52L86.66 37.52L86.66 35.51L87.58 35.51L87.58 37.52L88.94 37.52L88.94 38.24L87.58 38.24L87.58 42.14C87.58 42.71 87.86 43.07 88.46 43.07L88.94 43.07L88.94 43.87L88.3 43.91ZM91.02 35.71L91.02 34.66L92.06 34.66L92.06 35.71L91.02 35.71ZM91.06 43.91L91.06 37.52L91.98 37.52L91.98 43.91L91.06 43.91ZM96.39 43.91C95.31 43.91 94.75 43.15 94.75 42.18L94.75 38.24L93.95 38.24L93.95 37.52L94.75 37.52L94.75 35.51L95.67 35.51L95.67 37.52L97.03 37.52L97.03 38.24L95.67 38.24L95.67 42.14C95.67 42.71 95.95 43.07 96.55 43.07L97.03 43.07L97.03 43.87L96.39 43.91ZM103.15 43.91L103.15 43.19C102.71 43.71 102.07 43.99 101.35 43.99C100.67 43.99 100.11 43.79 99.71 43.39C99.27 42.95 99.07 42.35 99.07 41.58L99.07 37.52L99.99 37.52L99.99 41.46C99.99 42.59 100.59 43.15 101.55 43.15C102.51 43.15 103.15 42.59 103.15 41.46L103.15 37.52L104.07 37.52L104.07 43.91L103.15 43.91ZM108.43 43.91C107.35 43.91 106.79 43.15 106.79 42.18L106.79 38.24L105.99 38.24L105.99 37.52L106.79 37.52L106.79 35.51L107.71 35.51L107.71 37.52L109.07 37.52L109.07 38.24L107.71 38.24L107.71 42.14C107.71 42.71 107.99 43.07 108.59 43.07L109.07 43.07L109.07 43.87L108.43 43.91ZM111.67 40.98C111.67 42.39 112.31 43.19 113.55 43.19C114.27 43.19 114.71 42.95 115.24 42.47L115.88 43.03C115.24 43.67 114.63 44.04 113.55 44.04C111.87 44.04 110.79 43.03 110.79 40.78C110.79 38.72 111.79 37.52 113.39 37.52C115.04 37.52 116 38.72 116 40.62L116 41.06L111.67 40.98ZM114.84 39.21C114.59 38.64 114.03 38.24 113.35 38.24C112.67 38.24 112.11 38.6 111.87 39.21C111.71 39.57 111.71 39.77 111.67 40.25L115.04 40.25C115 39.77 115 39.57 114.84 39.21Z" fill="#E84610" fill-opacity="1.000000" fill-rule="nonzero"/>
	</g>
</svg>
