<svg width="138.000000" height="22.000000" viewBox="0 0 138 22" fill="none" xmlns="http://www.w3.org/2000/svg" xmlns:xlink="http://www.w3.org/1999/xlink">
	<desc>
			Created with Pixso.
	</desc>
	<defs>
		<clipPath id="clip1_777">
			<rect id="Frame" width="95.000000" height="18.000000" transform="translate(22.000000 2.000000)" fill="white" fill-opacity="0"/>
		</clipPath>
	</defs>
	<g clip-path="url(#clip1_777)">
		<path id="Vector" d="M29.67 5C28.55 5 28.23 5.48 28.23 6.54L28.23 8.3L31.2 8.3L30.91 11.15L28.23 11.15L28.23 19.79L24.66 19.79L24.66 11.15L22.26 11.15L22.26 8.3L24.66 8.3L24.66 6.59C24.66 3.72 25.85 2.2 29.17 2.2C29.86 2.2 30.56 2.24 31.25 2.32L31.25 5L29.67 5Z" fill="#4267B2" fill-opacity="1.000000" fill-rule="nonzero"/>
		<path id="Vector" d="M31.45 13.68C31.45 10.47 33.01 8.06 36.28 8.06C38.06 8.06 39.15 8.95 39.67 10.06L39.67 8.3L43.09 8.3L43.09 19.79L39.67 19.79L39.67 18.05C39.18 19.16 38.06 20.03 36.28 20.03C33.01 20.03 31.45 17.61 31.45 14.4L31.45 13.68ZM35.02 14.45C35.02 16.17 35.66 17.3 37.32 17.3C38.78 17.3 39.53 16.26 39.53 14.62L39.53 13.47C39.53 11.83 38.78 10.79 37.32 10.79C35.66 10.79 35.02 11.93 35.02 13.64L35.02 14.45Z" fill="#4267B2" fill-opacity="1.000000" fill-rule="nonzero"/>
		<path id="Vector" d="M50.52 8.06C51.91 8.06 53.22 8.35 53.94 8.83L53.15 11.29C52.41 10.95 51.59 10.77 50.77 10.76C48.84 10.76 48 11.85 48 13.71L48 14.38C48 16.24 48.84 17.33 50.77 17.33C51.59 17.32 52.41 17.14 53.15 16.79L53.94 19.25C53.22 19.74 51.91 20.03 50.52 20.03C46.34 20.03 44.43 17.83 44.43 14.31L44.43 13.78C44.43 10.26 46.34 8.06 50.52 8.06Z" fill="#4267B2" fill-opacity="1.000000" fill-rule="nonzero"/>
		<path id="Vector" d="M54.41 14.48L54.41 13.47C54.41 10.21 56.32 8.07 60.21 8.07C63.87 8.07 65.48 10.24 65.48 13.43L65.48 15.26L57.98 15.26C58.05 16.83 58.77 17.53 60.75 17.53C62.09 17.53 63.5 17.26 64.54 16.83L65.19 19.21C64.25 19.69 62.32 20.05 60.61 20.05C56.1 20.05 54.41 17.86 54.41 14.48ZM57.98 12.99L62.29 12.99L62.29 12.7C62.29 11.44 61.77 10.45 60.21 10.45C58.6 10.45 57.98 11.44 57.98 12.98L57.98 12.99Z" fill="#4267B2" fill-opacity="1.000000" fill-rule="nonzero"/>
		<path id="Vector" d="M78.71 14.41C78.71 17.61 77.12 20.03 73.85 20.03C72.07 20.03 70.83 19.16 70.34 18.05L70.34 19.79L66.97 19.79L66.97 2.54L70.54 2.22L70.54 9.89C71.06 8.88 72.2 8.06 73.86 8.06C77.13 8.06 78.71 10.47 78.71 13.68L78.71 14.41ZM75.14 13.61C75.14 11.99 74.5 10.79 72.79 10.79C71.32 10.79 70.53 11.8 70.53 13.44L70.53 14.65C70.53 16.29 71.32 17.3 72.79 17.3C74.5 17.3 75.14 16.09 75.14 14.48L75.14 13.61Z" fill="#4267B2" fill-opacity="1.000000" fill-rule="nonzero"/>
		<path id="Vector" d="M79.9 14.33L79.9 13.75C79.9 10.45 81.83 8.06 85.77 8.06C89.71 8.06 91.64 10.45 91.64 13.75L91.64 14.33C91.64 17.64 89.71 20.03 85.77 20.03C81.83 20.03 79.9 17.64 79.9 14.33ZM88.07 13.51C88.07 11.99 87.43 10.79 85.76 10.79C84.1 10.79 83.46 11.99 83.46 13.51L83.46 14.57C83.46 16.09 84.1 17.3 85.76 17.3C87.42 17.3 88.07 16.09 88.07 14.57L88.07 13.51Z" fill="#4267B2" fill-opacity="1.000000" fill-rule="nonzero"/>
		<path id="Vector" d="M92.83 14.33L92.83 13.75C92.83 10.45 94.76 8.06 98.7 8.06C102.64 8.06 104.57 10.45 104.57 13.75L104.57 14.33C104.57 17.64 102.64 20.03 98.7 20.03C94.76 20.03 92.83 17.64 92.83 14.33ZM101 13.51C101 11.99 100.36 10.79 98.7 10.79C97.04 10.79 96.4 11.99 96.4 13.51L96.4 14.57C96.4 16.09 97.04 17.3 98.7 17.3C100.36 17.3 101 16.09 101 14.57L101 13.51Z" fill="#4267B2" fill-opacity="1.000000" fill-rule="nonzero"/>
		<path id="Vector" d="M109.47 13.78L112.99 8.3L116.78 8.3L113.09 13.97L116.93 19.79L113.14 19.79L109.47 14.16L109.47 19.79L105.91 19.79L105.91 2.54L109.47 2.22L109.47 13.78Z" fill="#4267B2" fill-opacity="1.000000" fill-rule="nonzero"/>
	</g>
</svg>
