<svg width="27.000000" height="27.000000" viewBox="0 0 27 27" fill="none" xmlns="http://www.w3.org/2000/svg" xmlns:xlink="http://www.w3.org/1999/xlink">
	<desc>
			Created with Pixso.
	</desc>
	<defs>
		<clipPath id="clip1_909">
			<rect id="Frame" width="27.000000" height="27.000000" fill="white" fill-opacity="0"/>
		</clipPath>
	</defs>
	<g clip-path="url(#clip1_909)">
		<path id="Vector" d="M25.26 3.56C22.26 -0.03 16.29 -1.08 12 1.18L4.43 5.21C2.36 6.29 0.93 8.05 0.52 10.04C0.16 11.71 0.46 13.43 1.43 14.91C0.77 15.74 0.33 16.65 0.13 17.61C-0.31 19.65 0.27 21.76 1.7 23.43C4.73 27.02 10.67 28.07 14.97 25.81L22.54 21.8C24.6 20.73 26.03 18.96 26.44 16.97C26.8 15.3 26.5 13.59 25.54 12.1C26.2 11.28 26.64 10.36 26.83 9.4C27.3 7.34 26.72 5.24 25.26 3.56Z" fill="#FF3E00" fill-opacity="1.000000" fill-rule="nonzero"/>
		<path id="Vector" d="M11.25 23.77C8.8 24.29 6.24 23.49 4.81 21.78C3.93 20.77 3.6 19.51 3.85 18.28C3.9 18.07 3.96 17.89 4.01 17.68L4.15 17.32L4.54 17.54C5.44 18.09 6.44 18.51 7.51 18.78L7.78 18.85L7.76 19.08C7.73 19.4 7.84 19.74 8.06 20.02C8.5 20.54 9.27 20.79 10.01 20.63C10.18 20.59 10.34 20.54 10.48 20.47L18.02 16.47C18.41 16.26 18.66 15.97 18.74 15.6C18.82 15.23 18.71 14.85 18.46 14.55C18.02 14.02 17.25 13.79 16.51 13.95C16.34 14 16.18 14.04 16.04 14.11L13.15 15.65C12.68 15.9 12.16 16.08 11.61 16.2C9.16 16.72 6.6 15.92 5.17 14.2C4.32 13.2 3.96 11.94 4.23 10.7C4.48 9.51 5.36 8.44 6.6 7.8L14.17 3.79C14.64 3.54 15.16 3.36 15.71 3.22C18.16 2.7 20.72 3.5 22.15 5.21C23.03 6.22 23.36 7.48 23.11 8.71C23.06 8.92 23 9.1 22.92 9.31L22.78 9.67L22.4 9.45C21.49 8.9 20.5 8.48 19.43 8.21L19.15 8.14L19.18 7.91C19.21 7.59 19.1 7.25 18.88 6.97C18.44 6.45 17.66 6.22 16.92 6.38C16.76 6.42 16.59 6.47 16.45 6.54L8.91 10.54C8.53 10.75 8.28 11.05 8.2 11.41C8.11 11.78 8.22 12.17 8.47 12.47C8.91 12.99 9.68 13.22 10.43 13.06C10.59 13.01 10.76 12.97 10.89 12.9L13.78 11.37C14.25 11.12 14.77 10.93 15.33 10.79C17.77 10.27 20.33 11.07 21.77 12.79C22.65 13.79 22.98 15.05 22.73 16.29C22.48 17.48 21.6 18.55 20.36 19.19L12.79 23.2C12.33 23.45 11.8 23.63 11.25 23.77Z" fill="#FFFFFF" fill-opacity="1.000000" fill-rule="nonzero"/>
	</g>
</svg>
