<svg width="28.000000" height="28.000000" viewBox="0 0 28 28" fill="none" xmlns="http://www.w3.org/2000/svg" xmlns:xlink="http://www.w3.org/1999/xlink">
	<desc>
			Created with Pixso.
	</desc>
	<defs>
		<clipPath id="clip1_855">
			<rect id="Frame" width="28.000000" height="28.000000" fill="white" fill-opacity="0"/>
		</clipPath>
	</defs>
	<rect id="Frame" width="28.000000" height="28.000000" fill="#FFFFFF" fill-opacity="0"/>
	<g clip-path="url(#clip1_855)">
		<path id="Vector" d="M14.06 0.46C10.71 0.46 7.47 1.64 4.95 3.77C2.39 5.92 0.7 8.88 0.18 12.12C-0.36 15.37 0.3 18.69 2.03 21.53C3.74 24.33 6.43 26.45 9.62 27.51C10.33 27.63 10.58 27.2 10.58 26.83L10.58 24.47C6.65 25.32 5.82 22.61 5.82 22.61C5.57 21.77 5.01 21.05 4.26 20.57C2.99 19.72 4.37 19.72 4.37 19.72C4.81 19.78 5.23 19.94 5.61 20.19C5.98 20.44 6.29 20.77 6.51 21.15C6.7 21.49 6.96 21.79 7.27 22.04C7.73 22.4 8.3 22.63 8.89 22.68C9.49 22.72 10.08 22.6 10.6 22.31C10.66 21.61 10.96 20.95 11.47 20.45C8.34 20.1 5.06 18.91 5.06 13.64C5.04 12.27 5.56 10.94 6.51 9.92C6.08 8.72 6.13 7.41 6.64 6.25C6.64 6.25 7.83 5.87 10.51 7.67C12.81 7.04 15.25 7.04 17.55 7.67C20.23 5.87 21.4 6.25 21.4 6.25C21.92 7.4 21.98 8.7 21.58 9.89C22.53 10.91 23.04 12.24 23.02 13.61C23.02 18.95 19.73 20.11 16.6 20.43C16.93 20.76 17.19 21.16 17.36 21.6C17.52 22.04 17.59 22.51 17.56 22.98L17.56 26.79C17.56 27.24 17.81 27.59 18.52 27.46C21.67 26.37 24.33 24.25 26.01 21.45C27.71 18.63 28.35 15.33 27.81 12.1C27.29 8.89 25.62 5.95 23.09 3.8C20.59 1.68 17.39 0.49 14.06 0.46Z" fill="#F9F9F9" fill-opacity="1.000000" fill-rule="evenodd"/>
	</g>
</svg>
