<svg width="27.000000" height="27.000000" viewBox="0 0 27 27" fill="none" xmlns="http://www.w3.org/2000/svg" xmlns:xlink="http://www.w3.org/1999/xlink">
	<desc>
			Created with Pixso.
	</desc>
	<defs>
		<clipPath id="clip1_896">
			<rect id="Frame" width="27.000000" height="27.000000" fill="white" fill-opacity="0"/>
		</clipPath>
	</defs>
	<g clip-path="url(#clip1_896)">
		<path id="Vector" d="M13.32 4.43C8.43 4.43 4.45 8.41 4.45 13.3C4.45 18.18 8.43 22.16 13.32 22.16C18.2 22.16 22.18 18.18 22.18 13.3C22.18 8.41 18.2 4.43 13.32 4.43ZM13.3 5.22C13.46 5.23 13.6 5.29 13.71 5.4C13.81 5.51 13.87 5.65 13.87 5.81C13.87 5.96 13.81 6.11 13.7 6.22C13.59 6.33 13.44 6.39 13.29 6.39C13.13 6.39 12.98 6.33 12.87 6.22C12.77 6.11 12.7 5.96 12.7 5.81C12.7 5.73 12.72 5.65 12.75 5.58C12.78 5.51 12.82 5.44 12.88 5.39C12.94 5.33 13 5.29 13.08 5.26C13.15 5.23 13.23 5.22 13.3 5.22ZM14.64 6.18C15.66 6.37 16.63 6.79 17.48 7.39C18.33 8 19.04 8.78 19.55 9.68L18.86 11.23C18.75 11.5 18.87 11.82 19.13 11.94L20.46 12.52C20.5 12.94 20.5 13.35 20.47 13.77L19.74 13.77C19.66 13.77 19.63 13.82 19.63 13.89L19.63 14.23C19.63 15.02 19.18 15.2 18.79 15.24C18.42 15.28 18 15.08 17.95 14.85C17.73 13.61 17.36 13.35 16.78 12.89C17.5 12.43 18.25 11.75 18.25 10.85C18.25 9.87 17.58 9.26 17.12 8.95C16.48 8.53 15.78 8.45 15.58 8.45L7.97 8.45C9.02 7.27 10.43 6.48 11.99 6.18L12.88 7.12C13.09 7.34 13.42 7.35 13.63 7.14L14.64 6.18ZM6.35 10.5C6.5 10.5 6.65 10.57 6.75 10.68C6.86 10.78 6.92 10.93 6.92 11.08C6.92 11.24 6.86 11.38 6.75 11.49C6.64 11.6 6.49 11.66 6.33 11.66C6.18 11.66 6.03 11.6 5.92 11.49C5.81 11.38 5.75 11.24 5.75 11.08C5.75 11 5.77 10.93 5.8 10.85C5.83 10.78 5.87 10.72 5.93 10.66C5.98 10.61 6.05 10.57 6.12 10.54C6.2 10.51 6.27 10.5 6.35 10.5ZM20.25 10.52C20.41 10.53 20.55 10.59 20.66 10.7C20.76 10.81 20.82 10.96 20.82 11.11C20.82 11.26 20.76 11.41 20.65 11.52C20.54 11.63 20.39 11.69 20.24 11.69C20.08 11.69 19.93 11.63 19.83 11.52C19.72 11.41 19.65 11.26 19.65 11.11C19.65 11.03 19.67 10.95 19.7 10.88C19.73 10.81 19.78 10.74 19.83 10.69C19.89 10.64 19.95 10.59 20.03 10.56C20.1 10.54 20.18 10.52 20.25 10.52ZM7.45 10.62L8.47 10.62L8.47 15.2L6.41 15.2C6.16 14.31 6.08 13.38 6.18 12.46L7.44 11.9C7.71 11.78 7.83 11.47 7.71 11.2L7.45 10.62ZM11.69 10.67L14.11 10.67C14.24 10.67 15 10.81 15 11.38C15 11.85 14.41 12.02 13.94 12.02L11.69 12.02L11.69 10.67ZM11.69 13.96L13.55 13.96C13.71 13.96 14.45 14.01 14.69 14.95C14.76 15.24 14.92 16.18 15.03 16.48C15.14 16.82 15.59 17.49 16.07 17.49L19.1 17.49C18.89 17.77 18.67 18.02 18.43 18.26L17.2 18C16.91 17.94 16.63 18.12 16.57 18.41L16.28 19.77C15.34 20.2 14.31 20.42 13.28 20.41C12.25 20.41 11.23 20.18 10.29 19.74L10 18.38C9.94 18.09 9.66 17.91 9.37 17.97L8.16 18.23C7.94 18 7.73 17.75 7.54 17.49L13.41 17.49C13.47 17.49 13.52 17.48 13.52 17.42L13.52 15.35C13.52 15.29 13.47 15.27 13.41 15.27L11.69 15.27L11.69 13.96ZM8.99 18.71C9.14 18.71 9.28 18.78 9.39 18.89C9.49 19 9.55 19.14 9.55 19.29C9.55 19.45 9.49 19.6 9.38 19.7C9.27 19.81 9.12 19.88 8.97 19.88C8.81 19.88 8.67 19.81 8.56 19.7C8.45 19.6 8.39 19.45 8.39 19.29C8.39 19.21 8.4 19.14 8.43 19.07C8.46 18.99 8.51 18.93 8.56 18.87C8.62 18.82 8.68 18.78 8.76 18.75C8.83 18.72 8.91 18.71 8.99 18.71ZM17.62 18.74C17.77 18.74 17.92 18.8 18.02 18.91C18.13 19.02 18.19 19.17 18.19 19.32C18.19 19.47 18.12 19.62 18.02 19.73C17.91 19.84 17.76 19.9 17.6 19.9C17.45 19.9 17.3 19.84 17.19 19.73C17.08 19.62 17.02 19.47 17.02 19.32C17.02 19.24 17.04 19.16 17.07 19.09C17.1 19.02 17.14 18.95 17.2 18.9C17.25 18.85 17.32 18.8 17.39 18.77C17.46 18.75 17.54 18.73 17.62 18.74Z" fill="#000000" fill-opacity="1.000000" fill-rule="nonzero"/>
		<path id="Vector" d="M21.69 13.3C21.69 15.52 20.8 17.65 19.23 19.22C17.66 20.78 15.54 21.67 13.32 21.67C11.1 21.67 8.97 20.78 7.4 19.22C5.83 17.65 4.95 15.52 4.95 13.3C4.95 11.08 5.83 8.95 7.4 7.38C8.97 5.81 11.1 4.93 13.32 4.93C15.54 4.93 17.66 5.81 19.23 7.38C20.8 8.95 21.69 11.08 21.69 13.3ZM21.53 12.49L22.83 13.3L21.53 14.11L22.65 15.15L21.21 15.69L22.11 16.94L20.59 17.19L21.23 18.59L19.69 18.53L20.05 20.03L18.55 19.68L18.6 21.21L17.21 20.57L16.96 22.09L15.71 21.19L15.17 22.63L14.13 21.51L13.32 22.81L12.51 21.51L11.46 22.63L10.92 21.19L9.68 22.09L9.43 20.57L8.03 21.21L8.08 19.68L6.59 20.03L6.94 18.53L5.4 18.59L6.04 17.19L4.53 16.94L5.42 15.69L3.99 15.15L5.11 14.11L3.8 13.3L5.11 12.49L3.99 11.44L5.42 10.9L4.53 9.66L6.04 9.41L5.4 8.01L6.94 8.07L6.59 6.57L8.08 6.92L8.03 5.39L9.43 6.02L9.68 4.51L10.92 5.4L11.46 3.97L12.51 5.09L13.32 3.78L14.13 5.09L15.17 3.97L15.71 5.4L16.96 4.51L17.21 6.02L18.6 5.39L18.55 6.92L20.05 6.57L19.69 8.07L21.23 8.01L20.59 9.41L22.11 9.66L21.21 10.9L22.65 11.44L21.53 12.49Z" fill="#000000" fill-opacity="1.000000" fill-rule="evenodd"/>
		<path id="Vector" d="M19.23 19.22C17.66 20.78 15.54 21.67 13.32 21.67C11.1 21.67 8.97 20.78 7.4 19.22C5.83 17.65 4.95 15.52 4.95 13.3C4.95 11.08 5.83 8.95 7.4 7.38C8.97 5.81 11.1 4.93 13.32 4.93C15.54 4.93 17.66 5.81 19.23 7.38C20.8 8.95 21.69 11.08 21.69 13.3C21.69 15.52 20.8 17.65 19.23 19.22ZM22.83 13.3L21.53 14.11L22.65 15.15L21.21 15.69L22.11 16.94L20.59 17.19L21.23 18.59L19.69 18.53L20.05 20.03L18.55 19.68L18.6 21.21L17.21 20.57L16.96 22.09L15.71 21.19L15.17 22.63L14.13 21.51L13.32 22.81L12.51 21.51L11.46 22.63L10.92 21.19L9.68 22.09L9.43 20.57L8.03 21.21L8.08 19.68L6.59 20.03L6.94 18.53L5.4 18.59L6.04 17.19L4.53 16.94L5.42 15.69L3.99 15.15L5.11 14.11L3.8 13.3L5.11 12.49L3.99 11.44L5.42 10.9L4.53 9.66L6.04 9.41L5.4 8.01L6.94 8.07L6.59 6.57L8.08 6.92L8.03 5.39L9.43 6.02L9.68 4.51L10.92 5.4L11.46 3.97L12.51 5.09L13.32 3.78L14.13 5.09L15.17 3.97L15.71 5.4L16.96 4.51L17.21 6.02L18.6 5.39L18.55 6.92L20.05 6.57L19.69 8.07L21.23 8.01L20.59 9.41L22.11 9.66L21.21 10.9L22.65 11.44L21.53 12.49L22.83 13.3Z" stroke="#000000" stroke-opacity="1.000000" stroke-width="3.000000" stroke-linejoin="round"/>
	</g>
</svg>
