<svg width="27.000000" height="27.000000" viewBox="0 0 27 27" fill="none" xmlns="http://www.w3.org/2000/svg" xmlns:xlink="http://www.w3.org/1999/xlink">
	<desc>
			Created with Pixso.
	</desc>
	<defs>
		<clipPath id="clip1_922">
			<rect id="Frame" width="27.000000" height="27.000000" fill="white" fill-opacity="0"/>
		</clipPath>
	</defs>
	<g clip-path="url(#clip1_922)">
		<path id="Vector" d="M2.63 0L24.36 0C25.81 0 27 1.18 27 2.63L27 24.36C27 25.81 25.81 27 24.36 27L2.63 27C1.18 27 0 25.81 0 24.36L0 2.63C0 1.18 1.18 0 2.63 0Z" fill="#3178C6" fill-opacity="1.000000" fill-rule="evenodd"/>
		<path id="Vector" d="M2.63 0L24.36 0C25.81 0 27 1.18 27 2.63L27 24.36C27 25.81 25.81 27 24.36 27L2.63 27C1.18 27 0 25.81 0 24.36L0 2.63C0 1.18 1.18 0 2.63 0Z" fill="#3178C6" fill-opacity="1.000000" fill-rule="evenodd"/>
		<path id="Vector" d="M16.71 21.48L16.71 24.12C17.14 24.34 17.65 24.51 18.23 24.62C18.82 24.73 19.43 24.78 20.08 24.78C20.72 24.78 21.32 24.72 21.89 24.6C22.46 24.48 22.96 24.28 23.39 24C23.81 23.72 24.15 23.36 24.4 22.91C24.66 22.46 24.78 21.91 24.78 21.25C24.78 20.77 24.71 20.35 24.57 19.99C24.42 19.63 24.22 19.31 23.95 19.03C23.68 18.75 23.35 18.5 22.98 18.28C22.6 18.05 22.17 17.84 21.7 17.64C21.36 17.5 21.04 17.36 20.77 17.23C20.49 17.09 20.26 16.96 20.07 16.81C19.87 16.67 19.73 16.53 19.62 16.37C19.52 16.21 19.47 16.04 19.47 15.84C19.47 15.66 19.51 15.49 19.61 15.35C19.7 15.2 19.83 15.08 20 14.97C20.17 14.87 20.38 14.79 20.63 14.73C20.88 14.67 21.15 14.64 21.45 14.64C21.67 14.64 21.91 14.66 22.15 14.69C22.4 14.72 22.64 14.77 22.89 14.84C23.14 14.91 23.38 15 23.61 15.1C23.85 15.21 24.06 15.33 24.26 15.47L24.26 13C23.86 12.85 23.42 12.73 22.94 12.66C22.47 12.58 21.92 12.55 21.31 12.55C20.68 12.55 20.08 12.61 19.52 12.75C18.96 12.88 18.47 13.09 18.04 13.38C17.62 13.66 17.28 14.03 17.03 14.47C16.78 14.91 16.66 15.44 16.66 16.06C16.66 16.85 16.89 17.52 17.34 18.07C17.79 18.63 18.48 19.1 19.41 19.48C19.77 19.63 20.11 19.78 20.42 19.92C20.74 20.06 21.01 20.21 21.24 20.37C21.46 20.52 21.64 20.69 21.78 20.87C21.91 21.05 21.97 21.26 21.97 21.49C21.97 21.66 21.93 21.82 21.85 21.96C21.77 22.11 21.64 22.24 21.47 22.34C21.31 22.45 21.1 22.53 20.85 22.59C20.6 22.65 20.3 22.68 19.97 22.68C19.4 22.68 18.83 22.58 18.27 22.38C17.71 22.18 17.19 21.88 16.71 21.48ZM12.27 14.98L15.66 14.98L15.66 12.81L6.22 12.81L6.22 14.98L9.59 14.98L9.59 24.62L12.27 24.62L12.27 14.98Z" fill="#FFFFFF" fill-opacity="1.000000" fill-rule="evenodd"/>
	</g>
</svg>
