<svg width="27.000000" height="27.000000" viewBox="0 0 27 27" fill="none" xmlns="http://www.w3.org/2000/svg" xmlns:xlink="http://www.w3.org/1999/xlink">
	<desc>
			Created with Pixso.
	</desc>
	<defs>
		<clipPath id="clip1_955">
			<rect id="Frame" width="27.000000" height="27.000000" fill="white" fill-opacity="0"/>
		</clipPath>
	</defs>
	<g clip-path="url(#clip1_955)">
		<path id="Vector" d="M4.26 12.13C4.22 12.13 4.21 12.1 4.23 12.07L4.45 11.74C4.47 11.71 4.53 11.68 4.57 11.68L8.35 11.68C8.4 11.68 8.41 11.72 8.39 11.75L8.21 12.07C8.19 12.1 8.13 12.14 8.1 12.14L4.26 12.13Z" fill="#00ACD7" fill-opacity="1.000000" fill-rule="nonzero"/>
		<path id="Vector" d="M2.66 13.23C2.62 13.23 2.6 13.21 2.63 13.17L2.85 12.85C2.87 12.81 2.92 12.79 2.97 12.79L7.8 12.79C7.85 12.79 7.87 12.82 7.86 12.86L7.77 13.15C7.76 13.2 7.72 13.22 7.68 13.22L2.66 13.23Z" fill="#00ACD7" fill-opacity="1.000000" fill-rule="nonzero"/>
		<path id="Vector" d="M5.23 14.33C5.18 14.33 5.17 14.3 5.19 14.26L5.34 13.96C5.36 13.93 5.41 13.89 5.45 13.89L7.57 13.89C7.61 13.89 7.63 13.93 7.63 13.98L7.61 14.26C7.61 14.31 7.57 14.35 7.54 14.35L5.23 14.33Z" fill="#00ACD7" fill-opacity="1.000000" fill-rule="nonzero"/>
		<path id="Vector" d="M16.24 11.91C15.57 12.1 15.11 12.25 14.46 12.44C14.3 12.49 14.29 12.5 14.15 12.32C13.99 12.11 13.87 11.98 13.65 11.86C12.98 11.49 12.33 11.6 11.73 12.04C11.01 12.57 10.64 13.35 10.65 14.32C10.66 15.28 11.24 16.08 12.08 16.21C12.8 16.31 13.4 16.03 13.88 15.41C13.98 15.28 14.06 15.14 14.17 14.97C13.79 14.97 13.31 14.97 12.12 14.97C11.9 14.97 11.85 14.81 11.92 14.61C12.06 14.24 12.31 13.61 12.46 13.3C12.49 13.23 12.57 13.11 12.73 13.11C13.27 13.11 15.26 13.11 16.59 13.11C16.57 13.43 16.57 13.76 16.52 14.08C16.41 14.95 16.12 15.74 15.65 16.43C14.89 17.58 13.89 18.28 12.63 18.48C11.59 18.63 10.63 18.4 9.78 17.68C8.99 17.01 8.55 16.12 8.43 15.02C8.29 13.71 8.63 12.54 9.33 11.5C10.08 10.39 11.08 9.68 12.3 9.43C13.3 9.22 14.25 9.35 15.11 10.02C15.68 10.43 16.08 11.01 16.34 11.71C16.41 11.81 16.36 11.87 16.24 11.91Z" fill="#00ACD7" fill-opacity="1.000000" fill-rule="nonzero"/>
		<path id="Vector" d="M19.75 18.55C18.78 18.52 17.9 18.21 17.16 17.49C16.53 16.88 16.14 16.1 16.01 15.18C15.82 13.82 16.15 12.62 16.87 11.55C17.65 10.4 18.58 9.8 19.84 9.55C20.93 9.33 21.95 9.45 22.87 10.16C23.71 10.81 24.23 11.68 24.36 12.83C24.54 14.46 24.13 15.78 23.14 16.9C22.44 17.71 21.58 18.21 20.6 18.44C20.31 18.5 20.02 18.51 19.75 18.55ZM22.27 13.7C22.26 13.54 22.26 13.42 22.24 13.3C22.05 12.12 21.09 11.44 20.08 11.71C19.09 11.96 18.45 12.67 18.22 13.8C18.03 14.73 18.43 15.68 19.2 16.06C19.78 16.35 20.36 16.32 20.93 15.99C21.76 15.5 22.22 14.73 22.27 13.7Z" fill="#00ACD7" fill-opacity="1.000000" fill-rule="nonzero"/>
	</g>
</svg>
