<svg width="27.000000" height="27.000000" viewBox="0 0 27 27" fill="none" xmlns="http://www.w3.org/2000/svg" xmlns:xlink="http://www.w3.org/1999/xlink">
	<desc>
			Created with Pixso.
	</desc>
	<defs>
		<clipPath id="clip1_936">
			<rect id="Frame" width="27.000000" height="27.000000" fill="white" fill-opacity="0"/>
		</clipPath>
	</defs>
	<g clip-path="url(#clip1_936)">
		<path id="Vector" d="M0 0L27 0L27 27L0 27L0 0Z" fill="#FFFFFF" fill-opacity="1.000000" fill-rule="evenodd"/>
		<path id="Vector" d="M11.25 14.24C11.25 14.24 10.61 14.62 11.71 14.75C13.05 14.9 13.73 14.88 15.21 14.6C15.21 14.6 15.6 14.84 16.14 15.05C12.83 16.47 8.66 14.97 11.25 14.24ZM10.85 12.4C10.85 12.4 10.13 12.93 11.23 13.05C12.66 13.19 13.79 13.21 15.74 12.83C15.74 12.83 16.01 13.1 16.44 13.25C12.44 14.42 7.99 13.34 10.85 12.4Z" fill="#3174B9" fill-opacity="1.000000" fill-rule="evenodd"/>
		<path id="Vector" d="M14.25 9.26C15.07 10.2 14.04 11.04 14.04 11.04C14.04 11.04 16.11 9.97 15.16 8.64C14.27 7.39 13.59 6.77 17.27 4.64C17.27 4.64 11.49 6.08 14.25 9.26Z" fill="#CA3132" fill-opacity="1.000000" fill-rule="evenodd"/>
		<path id="Vector" d="M18.63 15.61C18.63 15.61 19.1 16.01 18.1 16.31C16.19 16.89 10.16 17.06 8.48 16.33C7.88 16.07 9.01 15.71 9.37 15.63C9.74 15.55 9.95 15.56 9.95 15.56C9.28 15.09 5.62 16.49 8.09 16.89C14.83 17.99 20.37 16.4 18.63 15.61ZM11.56 10.48C11.56 10.48 8.49 11.21 10.48 11.47C11.31 11.59 12.98 11.56 14.54 11.43C15.81 11.32 17.08 11.1 17.08 11.1C17.08 11.1 16.63 11.29 16.31 11.51C13.19 12.33 7.17 11.95 8.91 11.11C10.37 10.4 11.56 10.48 11.56 10.48ZM17.07 13.56C20.24 11.91 18.77 10.33 17.75 10.54C17.5 10.6 17.39 10.64 17.39 10.64C17.39 10.64 17.48 10.49 17.66 10.43C19.68 9.72 21.24 12.53 17.01 13.64C17.01 13.64 17.05 13.6 17.07 13.56Z" fill="#3174B9" fill-opacity="1.000000" fill-rule="evenodd"/>
		<path id="Vector" d="M15.16 1.19C15.16 1.19 16.91 2.94 13.49 5.64C10.75 7.81 12.87 9.04 13.49 10.45C11.89 9.01 10.72 7.74 11.51 6.55C12.66 4.82 15.87 3.97 15.16 1.19Z" fill="#CA3132" fill-opacity="1.000000" fill-rule="evenodd"/>
		<path id="Vector" d="M11.87 18.02C14.92 18.21 19.59 17.91 19.7 16.47C19.7 16.47 19.48 17.02 17.18 17.45C14.59 17.94 11.39 17.88 9.49 17.57C9.49 17.57 9.88 17.89 11.87 18.02Z" fill="#3174B9" fill-opacity="1.000000" fill-rule="evenodd"/>
		<path id="Vector" d="M19.56 20.6L19.46 20.6L19.46 20.55L19.71 20.55L19.71 20.6L19.62 20.6L19.62 20.86L19.56 20.86L19.56 20.6ZM20.05 20.61L20.05 20.61L19.96 20.86L19.92 20.86L19.83 20.61L19.83 20.61L19.83 20.86L19.76 20.86L19.76 20.55L19.85 20.55L19.94 20.77L20.02 20.55L20.11 20.55L20.11 20.86L20.05 20.86L20.05 20.61L20.05 20.61ZM11.38 23.52C11.09 23.77 10.79 23.9 10.51 23.9C10.13 23.9 9.92 23.67 9.92 23.3C9.92 22.9 10.14 22.6 11.04 22.6L11.38 22.6L11.38 23.52L11.38 23.52ZM12.17 24.41L12.17 21.65C12.17 20.94 11.77 20.47 10.79 20.47C10.23 20.47 9.73 20.61 9.33 20.79L9.44 21.28C9.76 21.16 10.17 21.06 10.58 21.06C11.14 21.06 11.38 21.28 11.38 21.75L11.38 22.1L11.1 22.1C9.74 22.1 9.12 22.62 9.12 23.42C9.12 24.1 9.53 24.49 10.29 24.49C10.78 24.49 11.14 24.29 11.48 23.99L11.55 24.41L12.17 24.41ZM14.81 24.41L13.82 24.41L12.63 20.54L13.5 20.54L14.23 22.92L14.4 23.63C14.77 22.6 15.03 21.55 15.17 20.54L16 20.54C15.78 21.82 15.38 23.21 14.81 24.41ZM18.6 23.52C18.31 23.77 18.01 23.9 17.73 23.9C17.35 23.9 17.14 23.67 17.14 23.3C17.14 22.9 17.36 22.6 18.26 22.6L18.6 22.6L18.6 23.52ZM19.39 24.41L19.39 21.65C19.39 20.94 18.98 20.47 18.01 20.47C17.45 20.47 16.95 20.61 16.55 20.79L16.66 21.28C16.98 21.16 17.39 21.06 17.8 21.06C18.36 21.06 18.6 21.28 18.6 21.75L18.6 22.1L18.32 22.1C16.96 22.1 16.34 22.62 16.34 23.42C16.34 24.1 16.75 24.49 17.51 24.49C18 24.49 18.36 24.29 18.71 23.99L18.77 24.41L19.39 24.41ZM8.26 25.07C8.03 25.4 7.67 25.66 7.27 25.8L6.88 25.34C7.18 25.19 7.44 24.94 7.56 24.7C7.67 24.49 7.71 24.22 7.71 23.58L7.71 19.17L8.55 19.17L8.55 23.52C8.55 24.38 8.48 24.73 8.26 25.07Z" fill="#CA3132" fill-opacity="1.000000" fill-rule="evenodd"/>
	</g>
</svg>
