<svg width="28.000000" height="28.000000" viewBox="0 0 28 28" fill="none"
	xmlns="http://www.w3.org/2000/svg" xmlns:xlink="http://www.w3.org/1999/xlink">
	<desc>
		Created with Pixso.
	</desc>
	<defs>
		<clipPath id="clip1_839">
			<rect id="Frame" width="28.000000" height="28.000000" fill="white" fill-opacity="0" />
		</clipPath>
	</defs>
	<rect id="Frame" width="28.000000" height="28.000000" fill="#FFFFFF" fill-opacity="0" />
	<g clip-path="url(#clip1_839)">
		<path id="Vector" d="M13.61 27.21L8.59 10.95L18.61 10.95L13.61 27.21Z" fill="#FFFFFF"
			fill-opacity="1.000000" fill-rule="nonzero" />
		<path id="Vector"
			d="M25.64 10.95L27.17 15.89C27.31 16.34 27.16 16.83 26.79 17.11L13.61 27.21L25.64 10.95Z"
			fill="#FFFFFF" fill-opacity="0.650000" fill-rule="nonzero" />
		<path id="Vector"
			d="M25.64 10.95L18.61 10.95L21.64 1.16C21.79 0.66 22.47 0.66 22.63 1.16L25.64 10.95Z"
			fill="#FFFFFF" fill-opacity="1.000000" fill-rule="nonzero" />
		<path id="Vector"
			d="M1.57 10.95L0.05 15.89C-0.09 16.34 0.06 16.83 0.42 17.11L13.61 27.21L1.57 10.95Z"
			fill="#FFFFFF" fill-opacity="0.650000" fill-rule="nonzero" />
		<path id="Vector"
			d="M1.57 10.95L8.59 10.95L5.57 1.16C5.42 0.66 4.75 0.66 4.59 1.16L1.57 10.95Z"
			fill="#FFFFFF" fill-opacity="1.000000" fill-rule="nonzero" />
		<path id="Vector" d="M13.61 27.21L8.59 10.95L1.57 10.95L13.61 27.21Z" fill="#FFFFFF"
			fill-opacity="0.850000" fill-rule="nonzero" />
		<path id="Vector" d="M13.61 27.21L25.64 10.95L18.61 10.95L13.61 27.21Z" fill="#FFFFFF"
			fill-opacity="0.850000" fill-rule="nonzero" />
	</g>
</svg>