<svg width="24.000000" height="24.000000" viewBox="0 0 24 24" fill="none" xmlns="http://www.w3.org/2000/svg" xmlns:xlink="http://www.w3.org/1999/xlink">
	<desc>
			Created with Pixso.
	</desc>
	<defs>
		<clipPath id="clip1_60">
			<rect id="Frame" width="24.000000" height="24.000000" fill="white" fill-opacity="0"/>
		</clipPath>
		<linearGradient id="paint_linear_1_61_0" x1="3.450001" y1="3.450005" x2="21.107002" y2="22.660810" gradientUnits="userSpaceOnUse">
			<stop stop-color="#FFAD33"/>
			<stop offset="1.000000" stop-color="#FF8A00"/>
		</linearGradient>
	</defs>
	<g clip-path="url(#clip1_60)">
		<path id="Vector" d="M12.05 0C9.19 -0.01 6.42 1.03 4.24 2.92C2.06 4.82 0.61 7.44 0.15 10.33C-0.31 13.21 0.26 16.17 1.74 18.67C3.22 21.17 5.53 23.05 8.24 23.98C8.85 24.09 9.07 23.7 9.07 23.38C9.07 23.05 9.07 22.31 9.07 21.29C5.7 22.03 4.99 19.63 4.99 19.63C4.77 18.89 4.29 18.25 3.65 17.83C2.57 17.07 3.74 17.07 3.74 17.07C4.12 17.13 4.49 17.27 4.81 17.49C5.12 17.71 5.39 18 5.58 18.34C5.75 18.64 5.97 18.91 6.23 19.13C6.5 19.34 6.8 19.5 7.13 19.6C7.45 19.69 7.79 19.72 8.13 19.68C8.47 19.64 8.79 19.54 9.09 19.37C9.13 18.75 9.4 18.16 9.83 17.72C7.15 17.41 4.34 16.35 4.34 11.68C4.32 10.46 4.76 9.28 5.58 8.38C5.21 7.32 5.26 6.15 5.69 5.12C5.69 5.12 6.71 4.79 9.01 6.38C10.98 5.83 13.07 5.83 15.04 6.38C17.34 4.79 18.35 5.12 18.35 5.12C18.79 6.14 18.84 7.3 18.49 8.36C19.3 9.25 19.75 10.43 19.73 11.66C19.73 16.38 16.91 17.42 14.23 17.7C14.51 17.99 14.74 18.35 14.88 18.74C15.02 19.13 15.08 19.55 15.05 19.96C15.05 21.61 15.05 22.94 15.05 23.34C15.05 23.74 15.26 24.05 15.88 23.93C18.56 22.98 20.83 21.1 22.29 18.61C23.75 16.12 24.3 13.18 23.84 10.32C23.38 7.45 21.95 4.85 19.79 2.96C17.63 1.07 14.89 0.02 12.05 0Z" fill="url(#paint_linear_1_61_0)" fill-opacity="1.000000" fill-rule="evenodd"/>
	</g>
</svg>
