<svg width="131.000000" height="40.000000" viewBox="0 0 131 40" fill="none" xmlns="http://www.w3.org/2000/svg" xmlns:xlink="http://www.w3.org/1999/xlink">
	<desc>
			Created with Pixso.
	</desc>
	<defs>
		<clipPath id="clip1_41">
			<rect id="Frame" width="131.000000" height="40.000000" fill="white" fill-opacity="0"/>
		</clipPath>
		<linearGradient id="paint_linear_1_49_0" x1="27.095703" y1="6.048787" x2="8.280867" y2="35.254097" gradientUnits="userSpaceOnUse">
			<stop stop-color="#FFB45B"/>
			<stop offset="1.000000" stop-color="#FF8A00"/>
		</linearGradient>
	</defs>
	<rect id="Frame" width="131.000000" height="40.000000" fill="#FFFFFF" fill-opacity="0"/>
	<g clip-path="url(#clip1_41)">
		<path id="Vector" d="M56.04 30.44C50.18 30.44 46 26.25 46 20.72C46 15.19 50.21 11 55.96 11C58.78 11 60.99 12.08 62.83 13.66L61.67 16.02C60.26 14.63 58.45 13.5 55.84 13.5C51.6 13.5 48.54 16.41 48.54 20.72C48.54 25.02 51.57 27.94 55.87 27.94C59.58 27.94 62.21 25.75 62.63 22.41L55.08 22.41L55.08 19.91L65.52 19.91L65.52 20.02C65.52 26.13 62.01 30.44 56.04 30.44Z" fill="#12100C" fill-opacity="1.000000" fill-rule="nonzero"/>
		<path id="Vector" d="M68.18 16.55L70.61 16.55L70.61 30.44L68.18 30.44L68.18 16.55Z" fill="#12100C" fill-opacity="1.000000" fill-rule="nonzero"/>
		<path id="Vector" d="M82.13 30.25L82.13 28.13C81.37 28.27 80.75 28.36 79.84 28.36C78.65 28.36 78.23 27.75 78.23 26.69L78.23 18.63L82.11 18.63L82.11 16.55L78.23 16.55L78.23 12.83L75.8 12.83L75.8 16.55L72.99 16.55L72.99 18.63L75.8 18.63L75.8 26.55C75.8 29.5 77.13 30.58 79.7 30.58C80.61 30.58 81.4 30.44 82.13 30.25Z" fill="#12100C" fill-opacity="1.000000" fill-rule="nonzero"/>
		<path id="Vector" d="M87.09 36L84.66 36L84.66 16.55L87.09 16.55L87.09 18.55C88.25 17.02 89.98 16.22 92.07 16.22C96.09 16.22 98.89 19.22 98.89 23.5C98.89 27.77 96.09 30.77 92.07 30.77C90.07 30.77 88.42 30 87.09 28.41L87.09 36ZM86.92 23.5C86.92 26.58 88.79 28.55 91.65 28.55C94.51 28.55 96.37 26.55 96.37 23.5C96.37 20.44 94.51 18.44 91.65 18.44C88.79 18.44 86.92 20.41 86.92 23.5Z" fill="#12100C" fill-opacity="1.000000" fill-rule="evenodd"/>
		<path id="Vector" d="M100.41 23.5C100.41 27.66 103.58 30.77 107.82 30.77C112.07 30.77 115.24 27.66 115.24 23.5C115.24 19.33 112.07 16.22 107.82 16.22C103.58 16.22 100.41 19.33 100.41 23.5ZM112.72 23.5C112.72 26.38 110.76 28.47 107.82 28.47C104.88 28.47 102.93 26.38 102.93 23.5C102.93 20.61 104.88 18.52 107.82 18.52C110.76 18.52 112.72 20.61 112.72 23.5Z" fill="#12100C" fill-opacity="1.000000" fill-rule="evenodd"/>
		<path id="Vector" d="M128.56 11L131 11L131 30.44L128.56 30.44L128.56 28.44C127.4 29.97 125.68 30.77 123.58 30.77C119.56 30.77 116.76 27.77 116.76 23.5C116.76 19.22 119.56 16.22 123.58 16.22C125.59 16.22 127.23 17 128.56 18.58L128.56 11ZM128.73 23.5C128.73 20.41 126.86 18.44 124.01 18.44C121.15 18.44 119.28 20.44 119.28 23.5C119.28 26.55 121.15 28.55 124.01 28.55C126.86 28.55 128.73 26.58 128.73 23.5Z" fill="#12100C" fill-opacity="1.000000" fill-rule="evenodd"/>
		<path id="Vector" d="M69.4 14.73C70.36 14.73 71.14 13.96 71.14 13.02C71.14 12.08 70.36 11.32 69.4 11.32C68.44 11.32 67.66 12.08 67.66 13.02C67.66 13.96 68.44 14.73 69.4 14.73Z" fill="#12100C" fill-opacity="1.000000" fill-rule="nonzero"/>
		<path id="Vector" d="M21.38 1.99C22.45 3.88 21.8 6.3 19.93 7.38L8.3 14.11C7.99 14.29 7.8 14.62 7.8 14.98L7.8 25.55C7.8 25.91 7.99 26.24 8.3 26.42L17.51 31.75C17.81 31.93 18.18 31.93 18.48 31.75L27.69 26.42C28 26.24 28.19 25.91 28.19 25.55L28.19 18.98L19.91 23.71C18.04 24.78 15.66 24.11 14.6 22.21C13.54 20.31 14.2 17.9 16.08 16.82L27.92 10.06C31.53 7.99 36 10.63 36 14.83L36 26.35C36 29.05 34.57 31.55 32.25 32.88L21.68 39C19.4 40.33 16.59 40.33 14.31 39L3.74 32.88C1.42 31.55 0 29.05 0 26.35L0 14.18C0 11.48 1.42 8.99 3.74 7.65L16.06 0.52C17.93 -0.57 20.31 0.09 21.38 1.99Z" fill="url(#paint_linear_1_49_0)" fill-opacity="1.000000" fill-rule="evenodd"/>
	</g>
</svg>
