<svg width="24.000000" height="24.000000" viewBox="0 0 24 24" fill="none" xmlns="http://www.w3.org/2000/svg" xmlns:xlink="http://www.w3.org/1999/xlink">
	
	<defs>
		<clipPath id="clip1_1003">
			<rect id="Frame" width="24.000000" height="24.000000" fill="white" fill-opacity="0"/>
		</clipPath>
		<linearGradient id="paint_linear_1_1006_0" x1="3.667086" y1="9.377617" x2="10.229589" y2="5.544248" gradientUnits="userSpaceOnUse">
			<stop stop-color="#A52714" stop-opacity="0.600000"/>
			<stop offset="0.660000" stop-color="#A52714" stop-opacity="0.000000"/>
		</linearGradient>
		<linearGradient id="paint_linear_1_1010_0" x1="13.858999" y1="20.561932" x2="6.567251" y2="16.291183" gradientUnits="userSpaceOnUse">
			<stop stop-color="#055524" stop-opacity="0.400000"/>
			<stop offset="0.330000" stop-color="#055524" stop-opacity="0.000000"/>
		</linearGradient>
		<linearGradient id="paint_linear_1_1015_0" x1="15.232252" y1="6.225500" x2="17.068378" y2="14.266249" gradientUnits="userSpaceOnUse">
			<stop stop-color="#EA6100" stop-opacity="0.301961"/>
			<stop offset="0.660000" stop-color="#EA6100" stop-opacity="0.000000"/>
		</linearGradient>
		<linearGradient id="paint_linear_1_1018_0" x1="15.232252" y1="6.225500" x2="17.068378" y2="14.266249" gradientUnits="userSpaceOnUse">
			<stop stop-color="#EA6100" stop-opacity="0.301961"/>
			<stop offset="0.660000" stop-color="#EA6100" stop-opacity="0.000000"/>
		</linearGradient>
		<linearGradient id="paint_linear_1_1022_0" x1="3.667086" y1="9.377617" x2="10.229589" y2="5.544248" gradientUnits="userSpaceOnUse">
			<stop stop-color="#A52714" stop-opacity="0.600000"/>
			<stop offset="0.660000" stop-color="#A52714" stop-opacity="0.000000"/>
		</linearGradient>
		<radialGradient id="paint_radial_1_1023_0" cx="0.000000" cy="0.000000" r="1.000000" gradientUnits="userSpaceOnUse" gradientTransform="translate(11.522 6.9935) rotate(0) scale(10.5097 10.5097)">
			<stop stop-color="#3E2723" stop-opacity="0.200000"/>
			<stop offset="1.000000" stop-color="#3E2723" stop-opacity="0.000000"/>
		</radialGradient>
		<linearGradient id="paint_linear_1_1027_0" x1="13.858999" y1="20.561932" x2="6.567251" y2="16.291183" gradientUnits="userSpaceOnUse">
			<stop stop-color="#055524" stop-opacity="0.400000"/>
			<stop offset="0.330000" stop-color="#055524" stop-opacity="0.000000"/>
		</linearGradient>
		<radialGradient id="paint_radial_1_1028_0" cx="0.000000" cy="0.000000" r="1.000000" gradientUnits="userSpaceOnUse" gradientTransform="translate(2.73434 6.0649) rotate(0) scale(9.7555 9.7555)">
			<stop stop-color="#3E2723" stop-opacity="0.200000"/>
			<stop offset="1.000000" stop-color="#3E2723" stop-opacity="0.000000"/>
		</radialGradient>
		<radialGradient id="paint_radial_1_1029_0" cx="0.000000" cy="0.000000" r="1.000000" gradientUnits="userSpaceOnUse" gradientTransform="translate(11.9805 12.0172) rotate(0) scale(10.9837 10.9837)">
			<stop stop-color="#263238" stop-opacity="0.200000"/>
			<stop offset="1.000000" stop-color="#263238" stop-opacity="0.000000"/>
		</radialGradient>
		<radialGradient id="paint_radial_1_1041_0" cx="0.000000" cy="0.000000" r="1.000000" gradientUnits="userSpaceOnUse" gradientTransform="translate(4.28575 4.00175) rotate(0) scale(22.0933 22.0933)">
			<stop stop-color="#FFFFFF" stop-opacity="0.101961"/>
			<stop offset="1.000000" stop-color="#FFFFFF" stop-opacity="0.000000"/>
		</radialGradient>
	</defs>
	<g clip-path="url(#clip1_1003)">
		<path id="Vector" d="M2.74 1L2.74 14.5L7.66 14.5L11.99 7L22.99 7L22.99 1L2.74 1Z" fill="#DB4437" fill-opacity="1.000000" fill-rule="nonzero"/>
		<path id="Vector" d="M2.74 1L2.74 14.5L7.66 14.5L11.99 7L22.99 7L22.99 1L2.74 1Z" fill="url(#paint_linear_1_1006_0)" fill-opacity="1.000000" fill-rule="nonzero"/>
		<path id="Vector" d="M7.78 14.45L2.81 5.91L2.73 6.04L7.67 14.51L7.78 14.45Z" fill="#3E2723" fill-opacity="0.150000" fill-rule="nonzero"/>
		<path id="Vector" d="M1 23L11.47 23L16.33 18.14L16.33 14.5L7.66 14.5L1 3.06L1 23Z" fill="#0F9D58" fill-opacity="1.000000" fill-rule="nonzero"/>
		<path id="Vector" d="M1 23L11.47 23L16.33 18.14L16.33 14.5L7.66 14.5L1 3.06L1 23Z" fill="url(#paint_linear_1_1010_0)" fill-opacity="1.000000" fill-rule="nonzero"/>
		<path id="Vector" d="M16.23 14.66L16.12 14.6L11.32 23L11.47 23L16.23 14.66L16.23 14.66Z" fill="#263238" fill-opacity="0.150000" fill-rule="nonzero"/>
		<path id="Vector" d="M12 7L16.33 14.5L11.47 23L23 23L23 7L12 7Z" fill="#FFCD40" fill-opacity="1.000000" fill-rule="nonzero"/>
		<path id="Vector" d="M12 7L16.33 14.5L11.47 23L23 23L23 7L12 7Z" fill="url(#paint_linear_1_1015_0)" fill-opacity="1.000000" fill-rule="nonzero"/>
		<path id="Vector" d="M12 7L16.33 14.5L11.47 23L23 23L23 7L12 7Z" fill="#FFCD40" fill-opacity="1.000000" fill-rule="nonzero"/>
		<path id="Vector" d="M12 7L16.33 14.5L11.47 23L23 23L23 7L12 7Z" fill="url(#paint_linear_1_1018_0)" fill-opacity="1.000000" fill-rule="nonzero"/>
		<path id="Vector" d="M2.74 1L2.74 14.5L7.66 14.5L11.99 7L22.99 7L22.99 1L2.74 1Z" fill="#DB4437" fill-opacity="1.000000" fill-rule="nonzero"/>
		<path id="Vector" d="M2.74 1L2.74 14.5L7.66 14.5L11.99 7L22.99 7L22.99 1L2.74 1Z" fill="url(#paint_linear_1_1022_0)" fill-opacity="1.000000" fill-rule="nonzero"/>
		<path id="Vector" d="M12 7L12 9.61L21.8 7L12 7Z" fill="url(#paint_radial_1_1023_0)" fill-opacity="1.000000" fill-rule="nonzero"/>
		<path id="Vector" d="M1 23L11.47 23L16.33 18.14L16.33 14.5L7.66 14.5L1 3.06L1 23Z" fill="#0F9D58" fill-opacity="1.000000" fill-rule="nonzero"/>
		<path id="Vector" d="M1 23L11.47 23L16.33 18.14L16.33 14.5L7.66 14.5L1 3.06L1 23Z" fill="url(#paint_linear_1_1027_0)" fill-opacity="1.000000" fill-rule="nonzero"/>
		<path id="Vector" d="M2.74 6.05L9.9 13.21L7.66 14.5L2.74 6.05Z" fill="url(#paint_radial_1_1028_0)" fill-opacity="1.000000" fill-rule="nonzero"/>
		<path id="Vector" d="M11.47 22.98L14.09 13.21L16.33 14.5L11.47 22.98Z" fill="url(#paint_radial_1_1029_0)" fill-opacity="1.000000" fill-rule="nonzero"/>
		<path id="Vector" d="M17 12C17 14.76 14.76 17 12 17C9.23 17 7 14.76 7 12C7 9.23 9.23 7 12 7C14.76 7 17 9.23 17 12Z" fill="#F1F1F1" fill-opacity="1.000000" fill-rule="evenodd"/>
		<path id="Vector" d="M16 12C16 14.2 14.2 16 12 16C9.79 16 8 14.2 8 12C8 9.79 9.79 8 12 8C14.2 8 16 9.79 16 12Z" fill="#4285F4" fill-opacity="1.000000" fill-rule="evenodd"/>
		<path id="Vector" d="M12 6.87C9.23 6.87 7 9.11 7 11.87L7 12C7 9.23 9.23 7 12 7L23 7L23 6.87L12 6.87Z" fill="#3E2723" fill-opacity="0.200000" fill-rule="nonzero"/>
		<path id="Vector" d="M16.32 14.5C15.46 15.99 13.84 17 12 17C10.14 17 8.53 15.99 7.67 14.5L7.66 14.5L1 3.06L1 3.18L7.66 14.62L7.67 14.62C8.53 16.11 10.15 17.12 12 17.12C13.85 17.12 15.46 16.11 16.32 14.62L16.33 14.62L16.33 14.5L16.32 14.5Z" fill="#FFFFFF" fill-opacity="0.100000" fill-rule="nonzero"/>
		<g opacity="0.100000">
			<path id="Vector" d="M12.12 7C12.1 7 12.08 7 12.06 7C14.79 7.03 17 9.26 17 12C17 14.74 14.79 16.96 12.06 16.99C12.08 16.99 12.1 17 12.12 17C14.88 17 17.12 14.76 17.12 12C17.12 9.23 14.88 7 12.12 7Z" fill="#3E2723" fill-opacity="1.000000" fill-rule="nonzero"/>
		</g>
		<path id="Vector" d="M16.37 14.66C16.79 13.93 17.04 13.08 17.04 12.17C17.04 11.64 16.96 11.13 16.81 10.66C16.93 11.08 17 11.53 17 12C17 12.91 16.75 13.76 16.32 14.49L16.33 14.5L11.47 23L11.61 23L16.37 14.67L16.37 14.66Z" fill="#FFFFFF" fill-opacity="0.200000" fill-rule="nonzero"/>
		<path id="Vector" d="M12 1.12C18.05 1.12 22.96 6.01 22.99 12.06C22.99 12.04 23 12.02 23 12C23 5.92 18.07 1 12 1C5.92 1 1 5.92 1 12C1 12.02 1 12.04 1 12.06C1.03 6.01 5.94 1.12 12 1.12Z" fill="#FFFFFF" fill-opacity="0.200000" fill-rule="nonzero"/>
		<path id="Vector" d="M12 22.87C18.05 22.87 22.96 17.98 22.99 11.93C22.99 11.95 23 11.97 23 12C23 18.07 18.07 23 12 23C5.92 23 1 18.07 1 12C1 11.97 1 11.95 1 11.93C1.03 17.98 5.94 22.87 12 22.87Z" fill="#3E2723" fill-opacity="0.150000" fill-rule="nonzero"/>
		<path id="Vector" d="M23 12C23 18.07 18.07 23 12 23C5.92 23 1 18.07 1 12C1 5.92 5.92 1 12 1C18.07 1 23 5.92 23 12Z" fill="url(#paint_radial_1_1041_0)" fill-opacity="1.000000" fill-rule="evenodd"/>
	</g>
</svg>
