<svg width="24.000000" height="24.000000" viewBox="0 0 24 24" fill="none"
	xmlns="http://www.w3.org/2000/svg" xmlns:xlink="http://www.w3.org/1999/xlink">
	<desc>
		Created with Pixso.
	</desc>
	<defs>
		<clipPath id="clip1_68">
			<rect id="Frame" width="24.000000" height="24.000000" fill="white" fill-opacity="0" />
		</clipPath>
		<linearGradient id="paint_linear_1_69_0" x1="3.449995" y1="3.450001" x2="21.106997"
			y2="22.660801" gradientUnits="userSpaceOnUse">
			<stop stop-color="#FFAD33" />
			<stop offset="1.000000" stop-color="#FF8A00" />
		</linearGradient>
	</defs>
	<g clip-path="url(#clip1_68)">
		<path id="Vector"
			d="M0 12C0 5.37 5.37 0 12 0C18.62 0 24 5.37 24 12C24 18.62 18.62 24 12 24C5.37 24 0 18.62 0 12ZM11.64 9.75L11.66 10.16L11.24 10.11C9.71 9.92 8.38 9.26 7.25 8.15L6.69 7.6L6.55 8C6.25 8.91 6.44 9.87 7.07 10.51C7.41 10.87 7.33 10.92 6.75 10.71C6.55 10.64 6.37 10.59 6.36 10.61C6.3 10.67 6.5 11.44 6.66 11.75C6.88 12.17 7.32 12.59 7.81 12.83L8.22 13.03L7.73 13.04C7.26 13.04 7.25 13.05 7.3 13.22C7.46 13.77 8.13 14.36 8.87 14.61L9.39 14.79L8.93 15.06C8.26 15.45 7.47 15.67 6.68 15.69C6.31 15.7 6 15.73 6 15.76C6 15.84 7.02 16.32 7.62 16.5C9.4 17.05 11.53 16.82 13.12 15.88C14.25 15.21 15.39 13.88 15.92 12.59C16.2 11.9 16.49 10.65 16.49 10.05C16.49 9.66 16.51 9.6 16.98 9.14C17.26 8.87 17.52 8.57 17.57 8.49C17.65 8.33 17.65 8.33 17.22 8.47C16.5 8.72 16.4 8.69 16.76 8.31C17.02 8.04 17.33 7.55 17.33 7.4C17.33 7.38 17.2 7.42 17.06 7.49C16.91 7.58 16.57 7.71 16.32 7.78L15.87 7.93L15.45 7.65C15.23 7.49 14.91 7.33 14.74 7.27C14.31 7.16 13.66 7.17 13.27 7.31C12.22 7.69 11.56 8.67 11.64 9.75Z"
			fill="url(#paint_linear_1_69_0)" fill-opacity="1.000000" fill-rule="evenodd" />
	</g>
</svg>