<svg width="24.000000" height="25.000000" viewBox="0 0 24 25" fill="none"
	xmlns="http://www.w3.org/2000/svg" xmlns:xlink="http://www.w3.org/1999/xlink">
	<desc>
		Created with Pixso.
	</desc>
	<defs>
		<clipPath id="clip1_76">
			<rect id="Frame" width="24.000000" height="24.000000" fill="white" fill-opacity="0" />
		</clipPath>
		<linearGradient id="paint_linear_1_78_0" x1="17.557997" y1="3.628869" x2="6.356000"
			y2="21.339870" gradientUnits="userSpaceOnUse">
			<stop stop-color="#FFB45B" />
			<stop offset="1.000000" stop-color="#FF8A00" />
		</linearGradient>
	</defs>
	<g clip-path="url(#clip1_76)">
		<path id="Vector"
			d="M14.07 1.19C14.22 1.46 14.32 1.76 14.36 2.07C14.4 2.38 14.38 2.69 14.3 2.99C14.21 3.29 14.07 3.58 13.88 3.82C13.69 4.07 13.45 4.27 13.18 4.43L6.07 8.47C5.98 8.52 5.9 8.59 5.85 8.68C5.79 8.78 5.76 8.88 5.76 8.99L5.76 15.33C5.76 15.43 5.79 15.54 5.85 15.63C5.9 15.72 5.98 15.8 6.07 15.85L11.7 19.05C11.79 19.1 11.89 19.13 12 19.13C12.1 19.13 12.2 19.1 12.29 19.05L17.92 15.85C18.01 15.8 18.09 15.72 18.14 15.63C18.2 15.54 18.23 15.43 18.23 15.33L18.23 11.38L13.17 14.22C12.62 14.53 11.97 14.61 11.36 14.44C10.75 14.27 10.23 13.87 9.92 13.32C9.76 13.05 9.67 12.75 9.63 12.44C9.59 12.13 9.61 11.82 9.7 11.52C9.78 11.22 9.93 10.94 10.12 10.69C10.31 10.45 10.55 10.25 10.82 10.09L18.06 6.03C20.27 4.79 23 6.38 23 8.9L23 15.81C23 17.43 22.12 18.92 20.71 19.73L14.25 23.4C13.56 23.79 12.78 24 12 24C11.21 24 10.43 23.79 9.74 23.4L3.28 19.73C2.59 19.34 2.01 18.77 1.61 18.08C1.21 17.39 1 16.61 1 15.81L1 8.5C1 6.88 1.87 5.39 3.28 4.59L10.81 0.31C11.36 0 12.01 -0.09 12.62 0.08C13.23 0.24 13.75 0.64 14.07 1.19Z"
			fill="url(#paint_linear_1_78_0)" fill-opacity="1.000000" fill-rule="evenodd" />
	</g>
</svg>