<svg width="24.000000" height="24.000000" viewBox="0 0 24 24" fill="none" xmlns="http://www.w3.org/2000/svg" xmlns:xlink="http://www.w3.org/1999/xlink">
	<desc>
			Created with Pixso.
	</desc>
	<defs>
		<clipPath id="clip1_64">
			<rect id="Frame" width="24.000000" height="24.000000" fill="white" fill-opacity="0"/>
		</clipPath>
		<linearGradient id="paint_linear_1_65_0" x1="3.418428" y1="3.450001" x2="21.088388" y2="22.499001" gradientUnits="userSpaceOnUse">
			<stop stop-color="#FFAD33"/>
			<stop offset="1.000000" stop-color="#FF8A00"/>
		</linearGradient>
	</defs>
	<g clip-path="url(#clip1_64)">
		<path id="Vector" d="M0 11.79C0 5.27 5.48 0 11.99 0C18.49 0 23.78 5.48 23.78 11.99C23.78 18.5 18.5 23.98 11.98 23.98L0 24L0 11.79ZM5.83 8.13C7.14 5.92 9.53 4.56 12.1 4.56L12.11 4.56C15.09 4.56 17.77 6.37 18.89 9.14C20 11.91 19.32 15.07 17.17 17.14C15.01 19.2 11.82 19.75 9.1 18.53L4.36 19.6L5.68 15.35C4.45 13.08 4.51 10.34 5.83 8.13Z" fill="url(#paint_linear_1_65_0)" fill-opacity="1.000000" fill-rule="evenodd"/>
	</g>
</svg>
